<svg width="38" height="25" viewBox="0 0 38 25" fill="none" xmlns="http://www.w3.org/2000/svg">
<path d="M10.188 10.4388C9.49217 10.4388 8.95881 10.6624 8.95881 10.6624L8.81149 11.5371C8.81149 11.5371 9.25147 11.3583 9.91768 11.3583C10.2958 11.3583 10.5721 11.4003 10.5721 11.7075C10.5721 11.8942 10.5385 11.9633 10.5385 11.9633C10.5385 11.9633 10.2406 11.939 10.1025 11.939C9.2245 11.939 8.30246 12.3125 8.30246 13.443C8.30246 14.3335 8.90685 14.5367 9.28238 14.5367C9.99857 14.5367 10.3077 14.0724 10.3235 14.0711L10.2899 14.4591H11.1837L11.5822 11.6641C11.5816 10.477 10.5471 10.4388 10.188 10.4388ZM9.68684 13.6864C9.37182 13.6864 9.28961 13.4463 9.28961 13.303C9.28961 13.0254 9.44022 12.6913 10.184 12.6913C10.3577 12.692 10.3761 12.7098 10.405 12.715C10.4247 12.886 10.2985 13.6864 9.68684 13.6864Z" fill="#545472"/>
<path d="M13.4158 11.3765C13.5585 11.3765 14.1089 11.4218 14.1089 11.4218L14.2372 10.5261C14.2372 10.5261 13.8807 10.4465 13.3007 10.4465C12.5496 10.4465 11.788 10.7464 11.788 11.7717C11.788 12.9345 13.0587 12.8161 13.0587 13.3067C13.0587 13.6329 12.7035 13.6599 12.4299 13.6599C11.9558 13.6599 11.5296 13.4981 11.5283 13.5047L11.3928 14.3932C11.4171 14.3997 11.6802 14.5168 12.5319 14.5168C12.7601 14.5168 14.0668 14.576 14.0668 13.2271C14.0668 11.9657 12.8574 12.215 12.8574 11.7079C12.8574 11.4554 13.054 11.3765 13.4158 11.3765Z" fill="#545472"/>
<path d="M15.5512 11.4905H16.0885L16.2181 10.5356H15.7117L15.815 9.94373H14.8002C14.7778 9.96543 14.201 13.282 14.201 13.6845C14.201 14.2836 14.5371 14.5493 15.01 14.5447C15.3802 14.5421 15.669 14.4395 15.7709 14.4112L15.8978 13.5484C15.8281 13.5484 15.7262 13.5786 15.6361 13.5786C15.2829 13.5786 15.2441 13.3899 15.2665 13.2511L15.5512 11.4905Z" fill="#545472"/>
<path d="M19.8043 5.95032H17.9931C17.7498 6.27915 17.5209 6.62902 17.3138 6.97101H20.5448C20.3206 6.61456 20.0726 6.27389 19.8043 5.95032Z" fill="#545472"/>
<path d="M33.9369 17.4328C33.9171 17.4031 33.9006 17.3807 33.8874 17.3669C33.8801 17.3603 33.8709 17.353 33.859 17.3497C33.8874 17.3477 33.9111 17.3372 33.9283 17.3194C33.9448 17.3016 33.954 17.2805 33.954 17.2561C33.954 17.2389 33.9487 17.2224 33.9388 17.2073C33.9289 17.1921 33.9144 17.1809 33.8966 17.1749C33.8801 17.1683 33.8518 17.165 33.8129 17.165H33.6981V17.4981H33.7522V17.357H33.7832C33.8016 17.357 33.8168 17.3609 33.8254 17.3688C33.8392 17.3801 33.859 17.4058 33.8821 17.446L33.9111 17.4988H33.9777L33.9369 17.4328ZM33.8168 17.3128H33.7509V17.2125H33.8129C33.8386 17.2125 33.8557 17.2145 33.8656 17.2185C33.8762 17.2224 33.8828 17.2284 33.8887 17.2356C33.894 17.2435 33.8966 17.2521 33.8966 17.2613C33.8966 17.2765 33.8913 17.2897 33.8801 17.2989C33.8689 17.3075 33.8472 17.3128 33.8168 17.3128Z" fill="#545472"/>
<path d="M21.094 7.97302H16.7488C16.4713 8.49849 16.2872 8.89572 16.2352 8.99437H21.5057C21.3867 8.64318 21.2499 8.30317 21.094 7.97302Z" fill="#545472"/>
<path d="M7.05883 9.63062L6.05853 12.5967L6.00657 9.63062H4.52551L3.71396 14.4638H4.69322L5.31076 10.8203L5.40152 14.4638H6.10062L7.40476 10.8203L6.82667 14.4638H7.86578L8.66616 9.63062H7.05883Z" fill="#545472"/>
<path d="M26.6414 10.4388C25.9443 10.4388 25.4116 10.6624 25.4116 10.6624L25.2636 11.5371C25.2636 11.5371 25.7042 11.3583 26.3698 11.3583C26.748 11.3583 27.0248 11.4003 27.0248 11.7075C27.0248 11.8942 26.99 11.9633 26.99 11.9633C26.99 11.9633 26.6927 11.939 26.5533 11.939C25.676 11.939 24.7546 12.3125 24.7546 13.443C24.7546 14.3335 25.3596 14.5367 25.7345 14.5367C26.45 14.5367 26.7591 14.0724 26.7756 14.0711L26.742 14.4591H27.6351L28.0337 11.6641C28.0357 10.477 27.0005 10.4388 26.6414 10.4388ZM26.1416 13.6864C25.8259 13.6864 25.7444 13.4463 25.7444 13.303C25.7444 13.0254 25.895 12.6913 26.6388 12.6913C26.8117 12.692 26.8302 12.7098 26.8598 12.715C26.8788 12.886 26.7519 13.6864 26.1416 13.6864Z" fill="#545472"/>
<path d="M33.9684 14.0187C33.9414 13.9687 33.902 13.9306 33.8527 13.9043C33.804 13.8773 33.754 13.8641 33.7014 13.8641C33.6508 13.8648 33.6001 13.8779 33.5501 13.9043C33.5008 13.9306 33.4627 13.9687 33.435 14.0187C33.4074 14.068 33.3936 14.1193 33.3936 14.1726C33.3936 14.2258 33.4074 14.2765 33.435 14.3252C33.462 14.3738 33.5002 14.4126 33.5488 14.4402C33.5981 14.4672 33.6488 14.481 33.7014 14.481C33.7553 14.481 33.8066 14.4672 33.8546 14.4402C33.9033 14.4126 33.9414 14.3738 33.9684 14.3252C33.9967 14.2765 34.0092 14.2258 34.0092 14.1726C34.0092 14.118 33.996 14.0667 33.9684 14.0187ZM33.9257 14.2995C33.9033 14.3403 33.8717 14.3712 33.8303 14.3955C33.7895 14.4179 33.7474 14.4297 33.7034 14.4297C33.6587 14.4297 33.6159 14.4179 33.5758 14.3955C33.5344 14.3725 33.5034 14.3409 33.4798 14.2995C33.4561 14.2581 33.4456 14.216 33.4456 14.1719C33.4456 14.1279 33.4568 14.0851 33.4811 14.0437C33.5041 14.0029 33.535 13.9713 33.5771 13.9483C33.6192 13.9253 33.6606 13.9154 33.7034 13.9154C33.7461 13.9154 33.7882 13.926 33.8283 13.9483C33.8704 13.9713 33.9013 14.0022 33.9244 14.0437C33.9474 14.0851 33.9599 14.1279 33.9599 14.1719C33.9599 14.216 33.9487 14.2587 33.9257 14.2995Z" fill="#545472"/>
<path d="M33.8066 14.2778C33.7875 14.2468 33.7703 14.225 33.7578 14.2118C33.7499 14.2046 33.7413 14.1986 33.7295 14.1947C33.7578 14.1927 33.7809 14.1822 33.798 14.1643C33.8145 14.1472 33.8244 14.1248 33.8244 14.101C33.8244 14.0845 33.8192 14.0674 33.8086 14.0522C33.798 14.0377 33.7842 14.0265 33.7677 14.0199C33.7512 14.0133 33.7222 14.01 33.6833 14.01H33.5672V14.3424H33.6213V14.2013H33.6523C33.6714 14.2013 33.6866 14.2052 33.6958 14.2125C33.7097 14.2244 33.7281 14.2494 33.7525 14.291L33.7809 14.3431H33.8475L33.8066 14.2778ZM33.6879 14.1558H33.6226V14.0549H33.6833C33.7097 14.0549 33.7268 14.0568 33.7374 14.0601C33.7459 14.0648 33.7539 14.0694 33.7591 14.0779C33.7651 14.0865 33.7677 14.0938 33.7677 14.105C33.7677 14.1195 33.7618 14.132 33.7519 14.1413C33.7393 14.1525 33.7189 14.1558 33.6879 14.1558Z" fill="#545472"/>
<path d="M30.0902 10.4871C29.6357 10.4871 29.2983 11.1072 29.2983 11.1072L29.3891 10.537H28.4434L27.8101 14.4712H28.8518C29.1484 12.7902 29.2023 11.4269 29.9067 11.6761C30.031 11.0263 30.1507 10.7745 30.2855 10.5002C30.2855 10.5009 30.2224 10.4871 30.0902 10.4871Z" fill="#545472"/>
<path d="M32.7077 9.63588L32.4887 10.994C32.4887 10.994 32.1072 10.4659 31.5088 10.4659C30.5782 10.4665 29.8034 11.5878 29.8034 12.8755C29.8034 13.7075 30.2171 14.5223 31.0615 14.5223C31.6699 14.5223 32.0066 14.0981 32.0066 14.0981L31.9625 14.4605H32.9497L33.7257 9.63391L32.7077 9.63588ZM31.4206 13.5358C31.055 13.5358 30.884 13.2294 30.884 12.7479C30.884 11.9607 31.2371 11.4418 31.6837 11.4418C32.048 11.4425 32.2355 11.6931 32.2355 12.2836C32.2355 12.8196 31.9704 13.5358 31.4206 13.5358Z" fill="#545472"/>
<path d="M36.478 0H1.24576C0.717001 0 0.28952 0.428138 0.28952 0.956241V23.1162C0.28952 23.6443 0.717001 24.0724 1.24576 24.0724H36.478C37.0068 24.0724 37.4343 23.6443 37.4343 23.1162V0.956241C37.4343 0.428138 37.0068 0 36.478 0ZM34.0993 17.48C34.0717 17.53 34.0342 17.5681 33.9855 17.5951C33.9368 17.6221 33.8855 17.6359 33.8329 17.6359C33.779 17.6359 33.7277 17.6221 33.679 17.5951C33.631 17.5681 33.5929 17.53 33.5646 17.48C33.5376 17.432 33.5238 17.3807 33.5238 17.3274C33.5238 17.2742 33.5376 17.2235 33.5653 17.1735C33.5922 17.1236 33.6317 17.0861 33.6803 17.0591C33.7297 17.0335 33.7797 17.0196 33.8323 17.0196C33.8842 17.0196 33.9342 17.0335 33.9829 17.0591C34.0322 17.0861 34.071 17.1236 34.098 17.1735C34.1256 17.2235 34.1387 17.2748 34.1387 17.3274C34.1387 17.38 34.1269 17.4333 34.0993 17.48ZM34.7885 12.0365C34.7898 17.3011 30.5242 21.5707 25.259 21.572C22.7967 21.5726 20.5514 20.6394 18.8599 19.1064C17.1684 20.6368 14.9278 21.5693 12.4694 21.5693C7.20747 21.5693 2.93661 17.2991 2.93661 12.0365C2.93661 6.79497 7.17393 2.53726 12.4083 2.50306C12.4287 2.50306 12.449 2.50306 12.4694 2.50306C14.9278 2.50306 17.1691 3.43563 18.8606 4.96601C20.5514 3.43497 22.7941 2.50175 25.2544 2.50109C30.5196 2.49912 34.7885 6.76669 34.7898 12.0319C34.7885 12.0332 34.7885 12.0339 34.7885 12.0365Z" fill="#545472"/>
<path d="M17.884 18.0642C18.1858 18.4338 18.5055 18.7863 18.8586 19.1059C18.8665 19.0987 18.8751 19.0921 18.883 19.0856C18.883 19.0856 18.8823 19.0856 18.8823 19.0849H18.8843C19.2315 18.7686 19.5557 18.4279 19.8524 18.0642H17.884Z" fill="#545472"/>
<path d="M19.1822 12.8316C19.1822 12.8316 19.3157 12.1739 19.3157 11.9062C19.3157 11.2374 18.9829 10.4219 17.8688 10.4219C16.8481 10.4225 16.0925 11.5221 16.0925 12.7651C16.0925 14.1995 17.0388 14.5402 17.8458 14.5402C18.5903 14.5402 18.9178 14.3731 18.9178 14.3731L19.0967 13.3945C19.0967 13.3945 18.5304 13.6444 18.0188 13.6444C16.929 13.6444 17.1197 12.8316 17.1197 12.8316H19.1822ZM17.8721 11.3327C18.4449 11.3327 18.339 11.9766 18.339 12.0279H17.2125C17.2125 11.9615 17.319 11.3327 17.8721 11.3327Z" fill="#545472"/>
<path d="M23.9423 10.557C24.4586 10.557 24.8735 10.8471 24.8735 10.8471L25.0393 9.77179C25.0393 9.77179 24.425 9.52319 23.8963 9.52319C22.725 9.52319 21.5852 10.5399 21.5852 12.4491C21.5852 13.7151 22.2002 14.551 23.4116 14.551C23.7535 14.551 24.2994 14.4123 24.2994 14.4123L24.4809 13.3048C24.4809 13.3048 23.9837 13.554 23.6417 13.554C22.9209 13.5533 22.6322 13.0035 22.6322 12.4143C22.6322 11.2154 23.2518 10.557 23.9423 10.557Z" fill="#545472"/>
<path d="M16.6114 16.0613C16.7764 16.4158 16.9685 16.7531 17.1743 17.082H20.5567C20.7619 16.7545 20.9467 16.4138 21.1117 16.0613H16.6114Z" fill="#545472"/>
<path d="M21.5669 10.4883C21.1125 10.4883 20.7757 11.1084 20.7757 11.1084L20.8671 10.5382H19.9221L19.2888 14.4724H20.3305C20.6258 12.792 20.681 11.4281 21.3854 11.6773C21.509 11.0269 21.6281 10.775 21.7629 10.5001C21.7629 10.5001 21.6997 10.4869 21.5669 10.4883Z" fill="#545472"/>
</svg>
