<svg width="38" height="24" viewBox="0 0 38 24" fill="none" xmlns="http://www.w3.org/2000/svg">
<path fill-rule="evenodd" clip-rule="evenodd" d="M1.43427 0C0.88198 0 0.434265 0.447716 0.434265 1V23C0.434265 23.5523 0.88198 24 1.43426 24H36.4343C36.9865 24 37.4343 23.5523 37.4343 23V1C37.4343 0.447715 36.9865 0 36.4343 0H1.43427ZM3.43427 9C3.43427 8.44771 3.88198 8 4.43427 8H10.4343C10.9865 8 11.4343 8.44771 11.4343 9V15C11.4343 15.5523 10.9865 16 10.4343 16H4.43427C3.88198 16 3.43427 15.5523 3.43427 15V9ZM14.9365 10.0866C15.1183 10.0866 15.2834 10.1118 15.4317 10.1622C15.5838 10.2126 15.7136 10.2803 15.8212 10.3654C15.9288 10.4504 16.0122 10.5512 16.0716 10.6677C16.1309 10.7811 16.1606 10.9024 16.1606 11.0315C16.1606 11.1606 16.1309 11.2835 16.0716 11.4C16.0122 11.5134 15.9288 11.6126 15.8212 11.6976C15.7136 11.7827 15.5838 11.8504 15.4317 11.9008C15.2834 11.9512 15.1183 11.9764 14.9365 11.9764H13.4343V9H15.8824V9.66142H14.241V10.0866H14.9365ZM14.9087 11.3858C15.0348 11.3858 15.1405 11.3512 15.2259 11.2819C15.3112 11.2094 15.3538 11.126 15.3538 11.0315C15.3538 10.937 15.3112 10.8551 15.2259 10.7858C15.1405 10.7134 15.0348 10.6772 14.9087 10.6772H14.241V11.3858H14.9087ZM16.6618 9H19.1656V9.66142H17.4686V10.1339H19.0265V10.7953H17.4686V11.315H19.2212V11.9764H16.6618V9ZM22.6963 11.9764V9H20.2203L20.0256 10.937C20.0108 11.0787 19.9588 11.189 19.8698 11.2677C19.7845 11.3465 19.6788 11.3858 19.5527 11.3858H19.4414V11.9764C19.4711 11.9827 19.5044 11.9874 19.5415 11.9906C19.5712 11.9937 19.6064 11.9953 19.6472 11.9953C19.688 11.9984 19.7307 12 19.7752 12C20.0683 12 20.3056 11.9213 20.4874 11.7638C20.6692 11.6031 20.7749 11.3748 20.8045 11.0787L20.9436 9.66142H21.8895V11.9764H22.6963ZM24.1681 11.9764H23.3614V9H24.1681V10.2756L25.2253 9H26.1433L24.9081 10.4646L26.1721 11.9137L27.3976 9H28.2322L29.4841 11.9764H28.6495L28.4269 11.4094H27.2029L26.9803 11.9764H26.2268H26.1457H25.3087L24.1681 10.6535V11.9764ZM27.8149 9.82677L28.2044 10.8189H27.4254L27.8149 9.82677ZM31.1524 9C31.3342 9 31.5011 9.02677 31.6532 9.08031C31.8052 9.13071 31.9369 9.20315 32.0482 9.29764C32.1595 9.38898 32.2467 9.49606 32.3097 9.6189C32.3728 9.74173 32.4043 9.87402 32.4043 10.0157C32.4043 10.1575 32.3728 10.2898 32.3097 10.4126C32.2467 10.5354 32.1595 10.6441 32.0482 10.7386C31.9369 10.8299 31.8052 10.9024 31.6532 10.9559C31.5011 11.0063 31.3342 11.0315 31.1524 11.0315H30.596V11.9764H29.7892V9H31.1524ZM31.1524 10.3701C31.2785 10.3701 31.3842 10.3354 31.4696 10.2661C31.5549 10.1937 31.5975 10.1102 31.5975 10.0157C31.5975 9.92126 31.5549 9.83937 31.4696 9.77008C31.3842 9.69764 31.2785 9.66142 31.1524 9.66142H30.596V10.3701H31.1524ZM33.626 11.9764H34.4328V9.66142H35.4343V9H32.6245V9.66142H33.626V11.9764ZM13.876 13.9494V13H13.4343V14.5949H13.8303L14.6072 13.6456V14.5949H15.049V13H14.6529L13.876 13.9494ZM16.6954 14.5949V13.4304H16.2841V13.8481H15.7966V13.4304H15.3853V14.5949H15.7966V14.1772H16.2841V14.5949H16.6954ZM16.8791 13.4304H18.113V13.7595H17.7017V14.5949H17.2904V13.7595H16.8791V13.4304ZM19.478 14.3899C19.5146 14.346 19.542 14.3004 19.5603 14.2532L19.1337 14.2278C19.1215 14.243 19.1053 14.2557 19.085 14.2658C19.0687 14.2759 19.0464 14.2852 19.018 14.2937C18.9916 14.3004 18.9591 14.3038 18.9205 14.3038C18.8433 14.3038 18.7793 14.2852 18.7285 14.2481C18.6798 14.211 18.6473 14.1705 18.631 14.1266H19.5907L19.5934 14.1109L19.5968 14.0886L19.6029 14.0532C19.6049 14.0397 19.606 14.0262 19.606 14.0127C19.606 13.9215 19.5877 13.8388 19.5511 13.7646C19.5166 13.6886 19.4678 13.6245 19.4049 13.5722C19.344 13.5181 19.2718 13.4768 19.1886 13.4481C19.1053 13.4194 19.0159 13.4051 18.9205 13.4051C18.8209 13.4051 18.7275 13.4211 18.6402 13.4532C18.5549 13.4835 18.4797 13.5266 18.4147 13.5823C18.3497 13.6363 18.2979 13.7004 18.2593 13.7747C18.2228 13.8473 18.2045 13.9266 18.2045 14.0127C18.2045 14.0987 18.2228 14.1789 18.2593 14.2532C18.2979 14.3257 18.3487 14.3899 18.4117 14.4456C18.4767 14.4996 18.5508 14.5426 18.6341 14.5747C18.7194 14.6051 18.8098 14.6203 18.9052 14.6203C18.9966 14.6203 19.0779 14.6101 19.149 14.5899C19.2221 14.5696 19.2861 14.5426 19.3409 14.5089C19.3957 14.4734 19.4414 14.4338 19.478 14.3899ZM18.7285 13.7797C18.7793 13.7409 18.8433 13.7215 18.9205 13.7215C18.9976 13.7215 19.0606 13.7409 19.1094 13.7797C19.1601 13.8169 19.1936 13.8608 19.2099 13.9114H18.631C18.6473 13.8608 18.6798 13.8169 18.7285 13.7797ZM20.5951 13.4177C20.6824 13.4177 20.7657 13.4329 20.8449 13.4633C20.9241 13.492 20.9932 13.5333 21.0521 13.5873C21.113 13.6397 21.1607 13.7021 21.1953 13.7747C21.2318 13.8473 21.2501 13.9266 21.2501 14.0127C21.2501 14.0987 21.2318 14.1781 21.1953 14.2506C21.1607 14.3232 21.113 14.3865 21.0521 14.4405C20.9932 14.4928 20.9241 14.5342 20.8449 14.5646C20.7657 14.5932 20.6824 14.6076 20.5951 14.6076C20.5423 14.6076 20.4935 14.6025 20.4488 14.5924C20.4062 14.5823 20.3696 14.5705 20.3391 14.557C20.3026 14.5418 20.2711 14.5249 20.2447 14.5063V15H19.8334V13.4304H20.1381L20.199 13.5443C20.2295 13.5207 20.265 13.4996 20.3056 13.481C20.3402 13.4658 20.3818 13.4515 20.4305 13.438C20.4793 13.4245 20.5341 13.4177 20.5951 13.4177ZM20.8388 14.0127C20.8388 13.93 20.8094 13.8633 20.7505 13.8127C20.6915 13.7603 20.6194 13.7342 20.5341 13.7342C20.4488 13.7342 20.3767 13.7603 20.3178 13.8127C20.2589 13.8633 20.2295 13.93 20.2295 14.0127C20.2295 14.0954 20.2589 14.1629 20.3178 14.2152C20.3767 14.2658 20.4488 14.2911 20.5341 14.2911C20.6194 14.2911 20.6915 14.2658 20.7505 14.2152C20.8094 14.1629 20.8388 14.0954 20.8388 14.0127ZM22.3924 14.5949H22.8037V13.4304H22.3924V13.8481H21.9049V13.4304H21.4936V14.5949H21.9049V14.1772H22.3924V14.5949ZM24.404 14.2532C24.3858 14.3004 24.3583 14.346 24.3218 14.3899C24.2852 14.4338 24.2395 14.4734 24.1847 14.5089C24.1298 14.5426 24.0659 14.5696 23.9927 14.5899C23.9216 14.6101 23.8404 14.6203 23.749 14.6203C23.6535 14.6203 23.5631 14.6051 23.4778 14.5747C23.3946 14.5426 23.3204 14.4996 23.2554 14.4456C23.1925 14.3899 23.1417 14.3257 23.1031 14.2532C23.0665 14.1789 23.0483 14.0987 23.0483 14.0127C23.0483 13.9266 23.0665 13.8473 23.1031 13.7747C23.1417 13.7004 23.1935 13.6363 23.2585 13.5823C23.3235 13.5266 23.3986 13.4835 23.4839 13.4532C23.5713 13.4211 23.6647 13.4051 23.7642 13.4051C23.8597 13.4051 23.9491 13.4194 24.0323 13.4481C24.1156 13.4768 24.1877 13.5181 24.2487 13.5722C24.3116 13.6245 24.3604 13.6886 24.3949 13.7646C24.4315 13.8388 24.4497 13.9215 24.4497 14.0127C24.4497 14.0262 24.4487 14.0397 24.4467 14.0532L24.4406 14.0886C24.4386 14.1021 24.4365 14.1148 24.4345 14.1266H23.4748C23.491 14.1705 23.5235 14.211 23.5723 14.2481C23.6231 14.2852 23.687 14.3038 23.7642 14.3038C23.8028 14.3038 23.8353 14.3004 23.8617 14.2937C23.8902 14.2852 23.9125 14.2759 23.9288 14.2658C23.9491 14.2557 23.9653 14.243 23.9775 14.2278L24.404 14.2532ZM23.7642 13.7215C23.687 13.7215 23.6231 13.7409 23.5723 13.7797C23.5235 13.8169 23.491 13.8608 23.4748 13.9114H24.0537C24.0374 13.8608 24.0039 13.8169 23.9531 13.7797C23.9044 13.7409 23.8414 13.7215 23.7642 13.7215ZM25.7743 13.4304H24.5404V13.7595H24.9517V14.5949H25.363V13.7595H25.7743V13.4304ZM27.617 13V14.5949H27.1752V13.3544H26.4288V14.5949H25.987V13H27.617ZM28.7938 13.4405C28.7228 13.4169 28.6456 13.4051 28.5623 13.4051C28.4709 13.4051 28.3897 13.4152 28.3186 13.4354C28.2475 13.454 28.1865 13.481 28.1358 13.5165C28.087 13.5502 28.0474 13.5916 28.0169 13.6405C27.9865 13.6878 27.9651 13.7401 27.953 13.7975L28.3643 13.8228C28.3704 13.8025 28.3815 13.784 28.3978 13.7671C28.412 13.7536 28.4303 13.7409 28.4526 13.7291C28.477 13.7156 28.5085 13.7089 28.5471 13.7089C28.5999 13.7089 28.6435 13.7241 28.6781 13.7544C28.7126 13.7848 28.7299 13.8287 28.7299 13.8861C28.5694 13.8861 28.4354 13.8962 28.3277 13.9165C28.2221 13.935 28.1368 13.962 28.0718 13.9975C28.0068 14.0312 27.9601 14.0726 27.9316 14.1215C27.9052 14.1688 27.892 14.2211 27.892 14.2785C27.892 14.3747 27.9327 14.454 28.0139 14.5165C28.0951 14.5772 28.2119 14.6076 28.3643 14.6076C28.4252 14.6076 28.48 14.6017 28.5288 14.5899C28.5796 14.5764 28.6232 14.5612 28.6598 14.5443C28.7024 14.5257 28.741 14.5046 28.7756 14.481L28.8365 14.5949H29.1412V13.8861C29.1412 13.8169 29.127 13.7527 29.0985 13.6937C29.0701 13.6346 29.0295 13.584 28.9767 13.5418C28.9259 13.4979 28.8649 13.4641 28.7938 13.4405ZM28.6567 14.2962C28.61 14.335 28.5481 14.3544 28.4709 14.3544C28.4181 14.3544 28.3765 14.3435 28.346 14.3215C28.3175 14.2996 28.3033 14.2726 28.3033 14.2405C28.3033 14.2186 28.3084 14.1983 28.3186 14.1797C28.3308 14.1612 28.3521 14.1451 28.3825 14.1316C28.415 14.1181 28.4587 14.108 28.5136 14.1013C28.5704 14.0928 28.6425 14.0886 28.7299 14.0886V14.1392C28.7299 14.2034 28.7055 14.2557 28.6567 14.2962ZM30.1934 13.4177C30.2807 13.4177 30.364 13.4329 30.4432 13.4633C30.5224 13.492 30.5915 13.5333 30.6504 13.5873C30.7113 13.6397 30.759 13.7021 30.7936 13.7747C30.8301 13.8473 30.8484 13.9266 30.8484 14.0127C30.8484 14.0987 30.8301 14.1781 30.7936 14.2506C30.759 14.3232 30.7113 14.3865 30.6504 14.4405C30.5915 14.4928 30.5224 14.5342 30.4432 14.5646C30.364 14.5932 30.2807 14.6076 30.1934 14.6076C30.1405 14.6076 30.0918 14.6025 30.0471 14.5924C30.0045 14.5823 29.9679 14.5705 29.9374 14.557C29.9009 14.5418 29.8694 14.5249 29.843 14.5063V15H29.4317V13.4304H29.7363L29.7973 13.5443C29.8277 13.5207 29.8633 13.4996 29.9039 13.481C29.9384 13.4658 29.9801 13.4515 30.0288 13.438C30.0776 13.4245 30.1324 13.4177 30.1934 13.4177ZM30.4371 14.0127C30.4371 13.93 30.4076 13.8633 30.3487 13.8127C30.2898 13.7603 30.2177 13.7342 30.1324 13.7342C30.0471 13.7342 29.975 13.7603 29.9161 13.8127C29.8572 13.8633 29.8277 13.93 29.8277 14.0127C29.8277 14.0954 29.8572 14.1629 29.9161 14.2152C29.975 14.2658 30.0471 14.2911 30.1324 14.2911C30.2177 14.2911 30.2898 14.2658 30.3487 14.2152C30.4076 14.1629 30.4371 14.0954 30.4371 14.0127ZM31.0858 13.7747C31.0492 13.8473 31.031 13.9266 31.031 14.0127C31.031 14.0987 31.0492 14.1789 31.0858 14.2532C31.1244 14.3257 31.1762 14.3899 31.2412 14.4456C31.3062 14.4996 31.3813 14.5426 31.4666 14.5747C31.554 14.6051 31.6474 14.6203 31.7469 14.6203C31.8465 14.6203 31.9389 14.6051 32.0242 14.5747C32.1115 14.5426 32.1877 14.4996 32.2527 14.4456C32.3177 14.3899 32.3685 14.3257 32.405 14.2532C32.4436 14.1789 32.4629 14.0987 32.4629 14.0127C32.4629 13.9266 32.4436 13.8473 32.405 13.7747C32.3685 13.7004 32.3177 13.6363 32.2527 13.5823C32.1877 13.5266 32.1115 13.4835 32.0242 13.4532C31.9389 13.4211 31.8465 13.4051 31.7469 13.4051C31.6474 13.4051 31.554 13.4211 31.4666 13.4532C31.3813 13.4835 31.3062 13.5266 31.2412 13.5823C31.1762 13.6363 31.1244 13.7004 31.0858 13.7747ZM31.9632 13.8C32.0222 13.8523 32.0516 13.9232 32.0516 14.0127C32.0516 14.1021 32.0222 14.173 31.9632 14.2253C31.9043 14.2776 31.8322 14.3038 31.7469 14.3038C31.6616 14.3038 31.5895 14.2776 31.5306 14.2253C31.4717 14.173 31.4423 14.1021 31.4423 14.0127C31.4423 13.9232 31.4717 13.8523 31.5306 13.8C31.5895 13.7477 31.6616 13.7215 31.7469 13.7215C31.8322 13.7215 31.9043 13.7477 31.9632 13.8ZM33.9269 14.5949H33.5156V13.7595H33.1957L33.15 14.2152C33.1378 14.3418 33.089 14.4388 33.0037 14.5063C32.9184 14.5738 32.7996 14.6076 32.6473 14.6076C32.6269 14.6076 32.6097 14.6068 32.5955 14.6051C32.5812 14.6051 32.5691 14.6042 32.5589 14.6025C32.5467 14.6008 32.5355 14.5983 32.5254 14.5949V14.3038H32.5711C32.632 14.3038 32.6757 14.2928 32.7021 14.2709C32.7285 14.2473 32.7458 14.2034 32.7539 14.1392L32.8301 13.4304H33.9269V14.5949ZM35.1326 13.8177C35.0717 13.7958 35.0047 13.7848 34.9316 13.7848H34.6421V13.4304H34.2308V14.5949H34.9316C35.0047 14.5949 35.0717 14.5848 35.1326 14.5646C35.1936 14.5426 35.2464 14.5139 35.2911 14.4785C35.3358 14.4413 35.3703 14.3983 35.3947 14.3494C35.4211 14.3004 35.4343 14.2473 35.4343 14.1899C35.4343 14.1325 35.4211 14.0793 35.3947 14.0304C35.3703 13.9814 35.3358 13.9392 35.2911 13.9038C35.2464 13.8667 35.1936 13.838 35.1326 13.8177ZM34.9773 14.2835C34.9488 14.3055 34.9082 14.3165 34.8554 14.3165H34.6421V14.0633H34.8554C34.9082 14.0633 34.9488 14.0751 34.9773 14.0987C35.0077 14.1207 35.023 14.1511 35.023 14.1899C35.023 14.2287 35.0077 14.2599 34.9773 14.2835ZM6.91691 12.5213H6.14436L6.70192 11.9657L6.19719 11.4628H6.91149V10.7533L7.41976 11.2597L7.98407 10.6974V11.4732H8.68113L8.16659 11.9859L8.73101 12.5483H7.95696V13.2738L7.4217 12.7405L6.91691 13.2435V12.5213ZM9.26792 13.0833V14.4375H7.95696V14.0545L7.00802 15L6.08104 14.0763L6.33077 13.8275H5.02093V12.5213H5.40552L4.43428 11.5535L5.36126 10.6299L5.60053 10.8683V9.57365H6.91149V9.91885L7.83344 9.00022L8.76042 9.92387L8.51641 10.167H9.88005V11.4732H9.50601L10.4342 12.3981L9.50725 13.3218L9.26792 13.0833Z" fill="white"/>
</svg>
