<svg width="38" height="24" viewBox="0 0 38 24" fill="none" xmlns="http://www.w3.org/2000/svg">
<path fill-rule="evenodd" clip-rule="evenodd" d="M1.43427 0C0.88198 0 0.434265 0.447716 0.434265 1V23C0.434265 23.5523 0.88198 24 1.43426 24H36.4343C36.9865 24 37.4343 23.5523 37.4343 23V1C37.4343 0.447715 36.9865 0 36.4343 0H1.43427ZM19.4172 3.92905L19.417 3.92892H19.4176L19.4172 3.92905ZM19.4172 3.92905L19.4536 3.952C19.5609 4.01251 19.6238 4.21122 19.6913 4.42422L19.6913 4.42426C19.7229 4.52396 19.7554 4.62679 19.794 4.72004C19.9233 5.03329 20.0605 5.43251 20.1964 5.8279L20.1964 5.82793L20.1965 5.82811C20.3 6.12924 20.4028 6.42816 20.5007 6.68518C20.5115 6.71373 20.5243 6.7427 20.5374 6.77228L20.5374 6.77232C20.5829 6.87531 20.6317 6.98579 20.6143 7.11232C20.486 7.19412 19.9936 7.1808 19.6803 7.17233C19.603 7.17024 19.5366 7.16844 19.4892 7.16844C19.3855 7.16844 19.2661 7.17099 19.1409 7.17366C18.8423 7.18003 18.5106 7.18711 18.2788 7.16203C18.2148 7.01108 18.312 6.76116 18.4239 6.47367C18.4917 6.29944 18.5649 6.1114 18.6108 5.92324C18.6319 5.83664 18.6644 5.76776 18.7009 5.69055C18.7237 5.64223 18.748 5.59066 18.7721 5.52944C18.835 5.36873 18.8884 5.20781 18.9408 5.04982L18.9408 5.04981C18.9791 4.93449 19.0168 4.82073 19.0574 4.70978L19.2822 4.10016C19.2895 4.07889 19.2949 4.06083 19.2996 4.04531C19.3207 3.97505 19.3262 3.95683 19.4172 3.92905ZM17.182 10.1665L15.6745 9.57035H15.6749C15.7179 9.36807 15.8403 9.06918 15.9459 8.81127L15.946 8.8112L15.946 8.81102C15.9895 8.70473 16.0302 8.6054 16.0613 8.52268L18.0066 3.41775C18.0279 3.36127 18.0488 3.30337 18.0699 3.24475C18.2811 2.65936 18.5177 2.00351 19.4274 2.00001C20.329 1.99671 20.5617 2.63205 20.8079 3.30442L20.8081 3.30498C20.8245 3.34962 20.8409 3.39444 20.8575 3.43923L22.8015 8.54224C22.8306 8.6198 22.8696 8.71536 22.9116 8.8182L22.9116 8.81825L22.9116 8.81828C23.0167 9.07601 23.1405 9.37948 23.1748 9.56009C23.0902 9.62166 21.7961 10.1296 21.6707 10.1501L21.0655 8.46753L17.7865 8.4733L17.182 10.1665ZM16.5845 13.9855L16.5841 13.9855C16.1204 13.9829 15.7809 13.981 15.6426 13.981C15.428 13.981 15.43 13.9374 15.4368 13.7916C15.438 13.7651 15.4394 13.7351 15.4396 13.7014L15.4343 12.7294L15.4342 12.7133C15.434 12.6001 15.4339 12.5471 15.4603 12.5226C15.4835 12.501 15.5273 12.5016 15.6095 12.5025H15.6095C15.6287 12.5027 15.6499 12.503 15.6735 12.503H22.8116C22.8504 12.5028 22.897 12.5003 22.947 12.4977C23.1078 12.4893 23.3038 12.479 23.3889 12.5347C23.4514 12.6342 23.4484 13.8787 23.3825 13.9525C23.2994 14.0231 18.6773 13.9972 16.5845 13.9855ZM15.9236 20.2897V18.7431C16.786 18.8423 16.8045 20.1745 15.9236 20.2897ZM11.9863 19.5967C12.2848 19.5701 12.7409 19.532 12.8306 19.8016C12.9567 20.1808 12.6643 20.293 12.3419 20.293L12.125 20.2944L11.9865 20.2856V19.5967H11.9863ZM11.2842 20.8945C11.6318 20.9147 12.3796 20.9264 12.7074 20.8876C13.7327 20.7662 13.7976 19.5807 13.2242 19.1649C12.9687 18.9799 12.7104 18.9812 12.4249 18.9828C12.2872 18.9835 12.1432 18.9843 11.9901 18.9642C11.9901 18.9076 11.9929 18.839 11.9958 18.765C12.0046 18.5461 12.0152 18.2798 11.9624 18.1355L11.2724 18.1401L11.2844 20.8943L11.2842 20.8945ZM8.2338 20.8833C9.3089 21.0652 9.30789 19.963 9.3071 19.0962C9.307 18.9854 9.3069 18.8784 9.30906 18.7785L10.0001 18.7773L9.99996 20.8962L10.7195 20.8984V18.1357L8.66073 18.1427C8.6586 18.2018 8.65596 18.3065 8.65267 18.4373L8.65266 18.4378C8.64006 18.9381 8.61788 19.8195 8.57751 19.992C8.52726 20.2067 8.4648 20.2184 8.23485 20.2602L8.23398 20.8833H8.2338ZM32.174 19.4641L32.174 19.4641C32.2473 19.5682 32.4808 19.8205 32.7282 20.088L32.7283 20.0881L32.7283 20.0881C33.0348 20.4193 33.3627 20.7737 33.434 20.8982C33.2151 20.898 33.052 20.9023 32.9276 20.9055C32.6893 20.9117 32.5936 20.9142 32.5216 20.8742C32.4732 20.8473 32.4355 20.8013 32.3724 20.7244C32.2999 20.6359 32.194 20.5067 31.9999 20.3187C31.9558 20.276 31.892 20.201 31.8224 20.1192L31.8223 20.1192L31.8223 20.1192C31.6986 19.9738 31.5568 19.8071 31.4753 19.7624L31.4732 20.8984H30.7554L30.7552 18.1362H31.4732L31.4744 19.2043L32.2215 18.4006C32.4652 18.105 32.5328 18.1079 32.9904 18.1273L32.9905 18.1273C33.0877 18.1315 33.2026 18.1364 33.3405 18.1393C33.2923 18.2394 33.2374 18.2899 33.1751 18.3471C33.1372 18.382 33.0965 18.4194 33.053 18.472C32.9822 18.5574 32.8552 18.693 32.7187 18.8388C32.4943 19.0785 32.2439 19.3459 32.174 19.4641L32.1738 19.4638L32.174 19.4641ZM28.4889 19.8076C28.5489 19.8076 28.627 19.8053 28.7137 19.8027C28.9824 19.7947 29.3341 19.7842 29.4884 19.8329L29.49 20.8986H30.2065L30.2072 18.1364H29.4891L29.483 19.1645L28.4922 19.1667L28.4894 18.1434L27.7737 18.1365L27.7748 20.8988L28.4892 20.8898V19.8078L28.4889 19.8076ZM26.4598 19.6895C26.488 19.9731 26.4259 20.1858 26.2365 20.2971C25.6455 20.6441 25.1727 19.891 25.679 19.7155C25.8113 19.6697 26.2675 19.6836 26.4498 19.6892L26.4596 19.6895H26.4598ZM25.5433 18.9388C25.6584 18.5823 26.4343 18.4613 26.4676 19.1167C26.3397 19.1246 26.2059 19.1228 26.0715 19.121H26.0715C25.7472 19.1166 25.4197 19.1122 25.1643 19.2446C24.8618 19.4017 24.6566 19.7449 24.7603 20.2268C24.8428 20.6101 25.0909 20.8461 25.48 20.9329C26.0301 21.0557 26.302 20.8276 26.4536 20.7005C26.4902 20.6698 26.5198 20.645 26.5446 20.6324C26.7846 20.8679 26.9308 20.9337 27.3661 20.8818V20.3167C27.3346 20.2471 27.3059 20.2424 27.2797 20.2382C27.2474 20.233 27.2189 20.2284 27.1936 20.1035L27.1845 19.0414C27.1128 17.6805 24.9754 17.6688 24.8098 18.9386H25.5433V18.9388ZM19.2692 19.6883C19.298 19.9634 19.2387 20.1729 19.0682 20.2848C18.4905 20.664 17.9631 19.8958 18.4898 19.7152C18.6139 19.6727 18.9621 19.6811 19.1735 19.6862C19.2102 19.6871 19.2427 19.6879 19.2692 19.6883ZM18.3541 18.9388C18.4759 18.5775 19.2366 18.4662 19.2783 19.1199C19.1721 19.123 19.0608 19.1209 18.948 19.1188C18.6013 19.1124 18.2407 19.1057 17.9743 19.246C17.6731 19.4044 17.4713 19.7466 17.5681 20.2198C17.6456 20.5995 17.9125 20.8521 18.2881 20.9332C18.7648 21.0363 19.0078 20.9087 19.288 20.6782L19.2966 20.6717L19.309 20.6622L19.3528 20.6317L19.3848 20.6613C19.5905 20.8517 19.6734 20.9284 20.1766 20.8847V20.3167C20.1377 20.2376 20.1075 20.2391 20.0817 20.2403C20.0507 20.2418 20.0261 20.243 20.0009 20.1043L19.9927 19.0443C19.9699 18.6078 19.7584 18.3051 19.4569 18.154C18.9284 17.889 17.7499 17.9292 17.6168 18.939H18.3541V18.9388ZM5.72511 19.4417C5.76401 19.2585 6.21362 17.9453 6.27974 17.8817L6.77384 19.442L5.72511 19.4417ZM5.48521 20.1098L7.00327 20.1088L7.24665 20.8974L8.08533 20.8986C7.96594 20.4171 7.52447 19.1676 7.21076 18.2797C7.12932 18.0492 7.05648 17.843 7.00013 17.681L6.99219 17.6582C6.85325 17.2579 6.75318 16.9696 6.23316 17.0025C5.79349 17.0305 5.69006 17.3349 5.56676 17.6978L5.54627 17.7578L4.79309 19.8608C4.77643 19.9048 4.75748 19.9541 4.73714 20.007C4.62993 20.2857 4.48436 20.6642 4.4342 20.8972L5.21496 20.8926L5.48521 20.1098ZM22.2818 20.2024L22.2718 19.1995C22.3554 19.1995 22.4445 19.1965 22.5357 19.1935C23.0686 19.1757 23.6734 19.1555 23.6676 19.7128C23.6619 20.2501 23.0378 20.2273 22.5312 20.2088C22.4433 20.2055 22.3588 20.2024 22.2818 20.2024ZM21.5211 20.8986H23.0028C23.9551 20.8986 24.6191 20.401 24.4052 19.4015C24.2178 18.5261 23.324 18.5274 22.3997 18.5288L22.2891 18.5289L22.2756 17.745L24.1325 17.7438L24.1372 17.0687C23.965 17.0151 22.6808 17.0312 21.9526 17.0404C21.7589 17.0428 21.6045 17.0447 21.5209 17.0447V20.8988L21.5211 20.8986ZM15.2039 18.7359V20.294C14.3273 20.1654 14.3209 18.8779 15.2039 18.7359ZM15.1991 18.0165C15.1896 18.0345 15.1833 18.0464 15.1741 18.0553C15.1557 18.0731 15.1256 18.0789 15.0356 18.0962C15.0173 18.0997 14.9964 18.1037 14.9727 18.1084C14.5165 18.1983 14.1468 18.4699 13.9566 18.885C13.5811 19.7051 13.9534 20.8223 15.1988 20.96L15.2042 21.9909L15.9239 21.9998L15.9263 20.9639C16.7331 20.8399 17.287 20.3997 17.2982 19.5356C17.3095 18.6493 16.7437 18.1916 15.9267 18.0712L15.9232 17.0444L15.2037 17.0463V18.0074L15.2039 18.0076C15.2022 18.0107 15.2006 18.0137 15.1991 18.0165Z" fill="#545472"/>
</svg>
