<svg width="38" height="25" viewBox="0 0 38 25" fill="none" xmlns="http://www.w3.org/2000/svg">
<path d="M8.11627 9.81379C7.96567 9.71514 7.7414 9.66516 7.44677 9.66516L7.19489 9.66648C7.02981 9.66516 6.8608 9.79801 6.82857 9.95848L6.59642 10.9581C6.56024 11.1199 6.6635 11.2521 6.83054 11.2521H7.01863C7.43625 11.2521 7.75982 11.1673 7.99197 10.9963C8.22413 10.8266 8.34317 10.5852 8.3379 10.2728C8.33922 10.0663 8.2649 9.91178 8.11627 9.81379Z" fill="#545472"/>
<path d="M12.2267 12.1178C12.1814 12.1191 11.8335 12.1586 11.6572 12.1803C11.4599 12.2086 11.2889 12.248 11.1501 12.2947L10.8239 12.517C10.7477 12.613 10.7115 12.7353 10.7115 12.8925L10.8601 13.1806C10.9607 13.2371 11.1094 13.2648 11.2988 13.2648C11.4237 13.2648 11.5592 13.2345 11.7013 13.1766L12.0038 13.0208L12.1235 12.8616C12.1708 12.6762 12.2688 12.2638 12.28 12.2125L12.2267 12.1178Z" fill="#545472"/>
<path d="M36.3333 0H1.10102C0.572256 0 0.144775 0.428138 0.144775 0.956241V23.1155C0.144775 23.6436 0.572256 24.0724 1.10102 24.0724H36.3333C36.8621 24.0724 37.2895 23.6443 37.2895 23.1162V0.956241C37.2895 0.428138 36.8621 0 36.3333 0ZM9.01269 11.6775C8.48919 12.0628 7.7605 12.2549 6.81873 12.2562H6.59907C6.43005 12.2562 6.26498 12.389 6.23012 12.5482L5.96574 13.6912C5.92826 13.8543 5.76318 13.9845 5.59614 13.9845H4.82667C4.65963 13.9845 4.55506 13.8504 4.59452 13.6912L5.67637 8.98038C5.71583 8.81859 5.87959 8.68903 6.04664 8.6864L7.65396 8.68575C8.00121 8.68903 8.30176 8.71008 8.56219 8.75743C8.81868 8.8061 9.04229 8.88765 9.2317 9.0034C9.41321 9.11783 9.55987 9.27107 9.65194 9.45653C9.75454 9.64199 9.79992 9.87414 9.79992 10.1504C9.79992 10.7817 9.54014 11.2921 9.01269 11.6775ZM13.7886 11.0763L13.7597 11.2743L13.1981 13.7024C13.1652 13.8484 13.0205 13.9727 12.8673 13.9904L12.8567 13.9944H12.7456H12.155H12.1412L12.1386 13.9918C11.9919 13.978 11.9011 13.8537 11.9327 13.7037V13.7024L11.934 13.6978L11.963 13.5741L11.959 13.5695L11.669 13.7609L11.3533 13.9372L10.9811 14.0648C10.8666 14.0924 10.7055 14.1088 10.4977 14.1088C10.1695 14.1088 9.89462 14.0187 9.6868 13.8326C9.48029 13.6425 9.37375 13.3999 9.37375 13.1026C9.37375 12.7869 9.44675 12.5199 9.59341 12.2976C9.74533 12.0767 9.96236 11.9043 10.2557 11.7754C10.5286 11.6511 10.8568 11.5591 11.2316 11.5071C11.6144 11.4519 11.9301 11.4118 12.3674 11.3841L12.4779 11.3157L12.4917 11.2072C12.4917 11.0402 12.4141 10.9251 12.2596 10.8573C12.103 10.7916 11.8676 10.7587 11.5598 10.7587C11.3507 10.7561 11.0876 10.7988 10.8384 10.8554C10.5773 10.9146 10.5056 10.9534 10.378 10.9915C10.3188 11.0119 10.1761 11.0218 10.2294 10.7745L10.3234 10.3871C10.3234 10.3871 10.3695 10.0945 10.6621 10.0307C10.8035 9.9991 10.8259 9.99318 11.0567 9.95766C11.3691 9.90965 11.6782 9.88532 11.988 9.88532C12.6147 9.88532 13.0738 9.96687 13.3638 10.1306C13.6551 10.2937 13.8038 10.5489 13.8024 10.8915L13.7886 11.0763ZM15.0257 15.8602L14.2286 15.8615C14.0629 15.8615 14.0083 15.73 14.1096 15.5682L14.7916 14.3791C14.7916 14.3791 14.8462 14.3114 14.7975 13.9234C14.6923 13.2223 14.1688 10.2418 14.1688 10.2418C14.1306 10.0806 14.2332 9.94846 14.3989 9.94846L15.0888 9.94714C15.2999 9.94714 15.4696 10.0859 15.5078 10.249L15.8511 12.316L15.9787 12.3174C16.0859 12.1273 17.1881 10.2359 17.1881 10.2359C17.2933 10.0767 17.5064 9.94188 17.6721 9.94188C17.6721 9.94188 18.4133 9.94385 18.5955 9.94188C18.8691 9.93793 18.5744 10.3812 18.5744 10.3812L15.5071 15.5682C15.4085 15.73 15.1901 15.8602 15.0257 15.8602ZM22.9946 11.6978C22.4691 12.0813 21.7371 12.2753 20.7954 12.2753H20.5757C20.41 12.2726 20.2442 12.4075 20.2061 12.5666L19.9457 13.7116C19.9075 13.8714 19.7392 14.0029 19.5761 14.001L18.8046 14.0029C18.6409 14.0036 18.533 13.8708 18.5725 13.7109L19.655 8.99748C19.6944 8.83767 19.8562 8.70745 20.0233 8.70482L21.6326 8.7035C21.9778 8.70482 22.2817 8.72915 22.5369 8.77453C22.7966 8.82188 23.0202 8.90343 23.207 9.01984C23.3905 9.13756 23.5345 9.28817 23.6306 9.47494C23.7292 9.65909 23.7772 9.8919 23.7785 10.1681C23.7785 10.7988 23.5148 11.3078 22.9946 11.6978ZM27.7679 11.0796L27.7396 11.2789L27.1767 13.705C27.1451 13.8517 26.9998 13.976 26.8485 13.9944L26.838 13.9983H26.7275C26.5683 13.9983 26.2329 13.9983 26.1362 13.9983H26.1224L26.1211 13.9944C25.9718 13.9806 25.8798 13.8569 25.9159 13.7063L25.9146 13.7044L25.9179 13.7017L25.9436 13.5781L25.9389 13.5722L25.6509 13.7662L25.3332 13.9418L24.9617 14.0674C24.8472 14.097 24.6854 14.1095 24.4796 14.1128C24.1508 14.1128 23.8785 14.0194 23.6694 13.8346C23.4615 13.6465 23.3543 13.4025 23.3543 13.1039C23.3543 12.7902 23.4273 12.5219 23.5747 12.3009C23.7253 12.0799 23.9456 11.9083 24.2363 11.7781C24.5112 11.6531 24.8413 11.5624 25.2142 11.5097C25.5943 11.4545 25.91 11.4144 26.3506 11.3874L26.4611 11.3177L26.473 11.2092C26.473 11.0435 26.3967 10.9271 26.2402 10.86C26.0836 10.7936 25.8482 10.7607 25.5417 10.7607C25.3313 10.7594 25.0675 10.8014 24.8189 10.8573C24.5592 10.9179 24.4888 10.9553 24.3619 10.9935C24.2974 11.0126 24.1587 11.0237 24.2113 10.7765L24.3053 10.3897C24.3053 10.3897 24.3494 10.0964 24.6434 10.0333C24.7861 10.0024 24.8091 9.99515 25.0393 9.96161C25.3497 9.91163 25.6608 9.88729 25.9705 9.88729C26.5946 9.88729 27.053 9.97016 27.3457 10.1339C27.639 10.297 27.7857 10.5509 27.7857 10.8935L27.7679 11.0796ZM30.2341 9.03628L29.2029 13.7063L29.1668 13.7616C29.1056 13.8931 28.9754 13.9997 28.834 13.9997H28.1184L28.1053 13.9832C27.9692 13.9622 27.8804 13.8523 27.9126 13.709L27.9113 13.7057L27.9422 13.5709L28.9063 9.18952L28.9405 9.03694L28.9793 8.97709C29.0418 8.84819 29.1694 8.74362 29.3108 8.74362H29.9994C30.1671 8.74362 30.2677 8.87449 30.2322 9.03496L30.2341 9.03628ZM31.6008 8.53119H31.343V8.87384L31.3449 8.96591L31.3627 9.02773L31.4035 9.06719L31.4824 9.07969L31.5468 9.07048L31.5948 9.05601H31.6008V9.16847L31.5238 9.1836L31.4508 9.18952L31.2759 9.12704L31.216 8.92974V8.53119H31.1292V8.42465H31.216V8.21091H31.343V8.42465H31.6008V8.53119ZM32.847 8.68838V9.17307H32.7227V8.74559L32.7148 8.65418L32.6984 8.58184L32.655 8.53909L32.5715 8.52396L32.4669 8.55092L32.3597 8.61866L32.3617 8.65549L32.363 8.69495V9.17439H32.238V8.74691L32.2328 8.65418L32.215 8.58249L32.1729 8.53974L32.0881 8.52462L31.9848 8.55027L31.8803 8.61538V9.17439H31.7566V8.42531H31.8803V8.50883L32 8.43255L32.1236 8.40492L32.2538 8.43583L32.3341 8.52528L32.4722 8.43255L32.607 8.40492L32.7892 8.47924L32.8483 8.68838H32.847Z" fill="#545472"/>
<path d="M26.2066 12.1216C26.1612 12.1209 25.8147 12.1617 25.641 12.1841C25.4418 12.2123 25.2714 12.2511 25.134 12.2985C24.9932 12.3537 24.8788 12.4281 24.8045 12.5208C24.7308 12.6168 24.694 12.7391 24.694 12.897L24.8446 13.1844C24.9406 13.2416 25.0873 13.2692 25.2826 13.2692C25.4056 13.2692 25.5411 13.239 25.6825 13.1817L25.983 13.0259L26.1067 12.8667C26.1527 12.6793 26.2527 12.2682 26.2606 12.2169L26.2066 12.1216Z" fill="#545472"/>
<path d="M22.0923 9.83142C21.9404 9.73211 21.7194 9.68344 21.4242 9.68213L21.1736 9.68344C21.0079 9.68213 20.8395 9.81629 20.8053 9.9761L20.5725 10.9751C20.535 11.1356 20.6422 11.2697 20.8086 11.2684H21C21.4163 11.2684 21.7392 11.1829 21.972 11.0159C22.2022 10.8442 22.3192 10.6048 22.3179 10.2898C22.314 10.0846 22.2423 9.93007 22.0923 9.83142Z" fill="#545472"/>
</svg>
