<svg width="38" height="24" viewBox="0 0 38 24" fill="none" xmlns="http://www.w3.org/2000/svg">
<path fill-rule="evenodd" clip-rule="evenodd" d="M0.434265 1C0.434265 0.447716 0.88198 0 1.43427 0H36.4343C36.9865 0 37.4343 0.447715 37.4343 1V23C37.4343 23.5523 36.9865 24 36.4343 24H1.43426C0.88198 24 0.434265 23.5523 0.434265 23V1ZM27.5376 17C27.4282 17 27.3239 16.9822 27.2247 16.9465C27.1255 16.9087 27.0377 16.8572 26.9614 16.7921C26.8877 16.7249 26.8279 16.6462 26.7821 16.5559C26.7388 16.4656 26.7172 16.3669 26.7172 16.2598C26.7172 16.1528 26.7388 16.0541 26.7821 15.9638C26.8279 15.8735 26.8877 15.7958 26.9614 15.7307C27.0377 15.6635 27.1255 15.6121 27.2247 15.5764C27.3239 15.5386 27.4282 15.5197 27.5376 15.5197C27.6088 15.5197 27.6724 15.5281 27.7284 15.5449C27.7843 15.5596 27.8327 15.5753 27.8734 15.5921C27.9192 15.6131 27.9599 15.6362 27.9955 15.6614V15H28.4343V16.9843H28.1099L28.0336 16.8425C27.9929 16.8719 27.9484 16.8982 27.9001 16.9213C27.8568 16.9423 27.8047 16.9612 27.7436 16.978C27.6826 16.9927 27.6139 17 27.5376 17ZM28.0336 16.2598C28.0336 16.1402 27.9916 16.0446 27.9077 15.9732C27.8238 15.9018 27.7195 15.8661 27.5948 15.8661C27.4702 15.8661 27.3659 15.9018 27.2819 15.9732C27.198 16.0446 27.156 16.1402 27.156 16.2598C27.156 16.3795 27.198 16.4751 27.2819 16.5465C27.3659 16.6178 27.4702 16.6535 27.5948 16.6535C27.7195 16.6535 27.8238 16.6178 27.9077 16.5465C27.9916 16.4751 28.0336 16.3795 28.0336 16.2598ZM16.4724 15.189H16.8539V15.5354H17.2355V15.8661H16.8539V16.4646C16.8539 16.5276 16.8755 16.578 16.9188 16.6157C16.9646 16.6514 17.0256 16.6693 17.1019 16.6693H17.1515C17.1643 16.6672 17.1757 16.6651 17.1859 16.663C17.1961 16.6609 17.2062 16.6577 17.2164 16.6535V16.9685C17.1986 16.9748 17.1782 16.9801 17.1554 16.9843C17.1121 16.9948 17.0625 17 17.0065 17C16.9201 17 16.8399 16.9885 16.7662 16.9654C16.6949 16.9402 16.6326 16.9045 16.5792 16.8583C16.5283 16.8121 16.4876 16.7575 16.4571 16.6945C16.4291 16.6315 16.4151 16.5601 16.4151 16.4803V15.8661H16.148V15.5669H16.2625C16.4024 15.5669 16.4724 15.5092 16.4724 15.3937V15.189ZM10.2546 15.5197C10.3437 15.5197 10.42 15.5302 10.4836 15.5512C10.5472 15.5701 10.5993 15.5911 10.64 15.6142C10.6858 15.6415 10.7227 15.673 10.7507 15.7087C10.7914 15.673 10.8384 15.6415 10.8918 15.6142C10.9376 15.5911 10.9923 15.5701 11.0559 15.5512C11.1195 15.5302 11.1895 15.5197 11.2658 15.5197C11.4566 15.5197 11.6092 15.5701 11.7237 15.6709C11.8381 15.7717 11.8954 15.9207 11.8954 16.1181V16.9843H11.4566V16.1496C11.4566 16.0614 11.4273 15.9921 11.3688 15.9417C11.3128 15.8913 11.2467 15.8661 11.1704 15.8661C11.0941 15.8661 11.0267 15.8913 10.9682 15.9417C10.9122 15.9921 10.8842 16.0614 10.8842 16.1496V16.9843H10.4454V16.1496C10.4454 16.0614 10.4162 15.9921 10.3577 15.9417C10.3017 15.8913 10.2356 15.8661 10.1592 15.8661C10.0829 15.8661 10.0155 15.8913 9.95701 15.9417C9.90105 15.9921 9.87306 16.0614 9.87306 16.1496V16.9843H9.43427V15.5354H9.7586L9.83491 15.6772C9.87052 15.6478 9.90995 15.6215 9.95319 15.5984C9.98881 15.5795 10.0321 15.5617 10.0829 15.5449C10.1338 15.5281 10.191 15.5197 10.2546 15.5197ZM13.2118 15.5197C13.311 15.5197 13.4025 15.5344 13.4865 15.5638C13.5704 15.5911 13.6429 15.6299 13.704 15.6803C13.765 15.7307 13.8121 15.7906 13.8452 15.8598C13.8808 15.9291 13.8986 16.0047 13.8986 16.0866V16.9843H13.5742L13.4979 16.8425C13.4572 16.8719 13.4127 16.8982 13.3644 16.9213C13.3211 16.9423 13.269 16.9612 13.2079 16.978C13.1469 16.9927 13.0782 17 13.0019 17C12.8111 17 12.6648 16.9622 12.5631 16.8866C12.4613 16.8089 12.4105 16.7102 12.4105 16.5906C12.4105 16.5192 12.427 16.4541 12.4601 16.3953C12.4957 16.3344 12.5542 16.2829 12.6356 16.2409C12.717 16.1968 12.8238 16.1633 12.9561 16.1402C13.0909 16.115 13.2588 16.1024 13.4598 16.1024C13.4598 16.0226 13.4331 15.9606 13.3796 15.9165C13.3288 15.8724 13.2601 15.8504 13.1736 15.8504C13.1151 15.8504 13.068 15.8588 13.0324 15.8756C12.9994 15.8924 12.9726 15.9102 12.9523 15.9291C12.9294 15.9522 12.9141 15.9785 12.9065 16.0079H12.4677C12.4779 15.9407 12.5008 15.8777 12.5364 15.8189C12.5745 15.7601 12.6254 15.7087 12.689 15.6646C12.7526 15.6205 12.8277 15.5858 12.9141 15.5606C13.0032 15.5333 13.1024 15.5197 13.2118 15.5197ZM13.0782 16.7165C13.1927 16.7165 13.2843 16.6892 13.3529 16.6346C13.4242 16.578 13.4598 16.5055 13.4598 16.4173V16.3543C13.33 16.3543 13.2257 16.3596 13.1469 16.3701C13.068 16.3785 13.0057 16.3921 12.9599 16.411C12.9167 16.4278 12.8874 16.4488 12.8722 16.474C12.8569 16.4992 12.8493 16.5276 12.8493 16.5591C12.8493 16.5989 12.8709 16.6357 12.9141 16.6693C12.9574 16.7008 13.0121 16.7165 13.0782 16.7165ZM14.8968 16.6504C14.851 16.6168 14.823 16.5759 14.8128 16.5276H14.3931C14.4109 16.6703 14.4783 16.7848 14.5953 16.8709C14.7149 16.957 14.8892 17 15.1181 17C15.2173 17 15.3063 16.9885 15.3852 16.9654C15.4666 16.9402 15.5353 16.9076 15.5912 16.8677C15.6472 16.8278 15.6904 16.7816 15.721 16.7291C15.7515 16.6745 15.7668 16.6178 15.7668 16.5591C15.7668 16.473 15.7439 16.4037 15.6981 16.3512C15.6548 16.2966 15.6001 16.2525 15.534 16.2189C15.4679 16.1853 15.3954 16.1601 15.3165 16.1433C15.2402 16.1244 15.169 16.1076 15.1028 16.0929C15.0367 16.0761 14.9807 16.0583 14.9349 16.0394C14.8917 16.0205 14.8701 15.9942 14.8701 15.9606C14.8701 15.9207 14.8879 15.8871 14.9235 15.8598C14.9617 15.8325 15.0138 15.8189 15.0799 15.8189C15.1461 15.8189 15.2008 15.8346 15.244 15.8661C15.2898 15.8976 15.3178 15.9291 15.328 15.9606H15.7477C15.7273 15.8346 15.6599 15.7297 15.5454 15.6457C15.4335 15.5617 15.272 15.5197 15.0609 15.5197C14.9642 15.5197 14.8777 15.5323 14.8014 15.5575C14.7251 15.5806 14.6589 15.6121 14.603 15.652C14.547 15.6919 14.5038 15.7391 14.4732 15.7937C14.4453 15.8462 14.4313 15.9018 14.4313 15.9606C14.4313 16.0446 14.4529 16.1129 14.4961 16.1654C14.5419 16.2157 14.5979 16.2577 14.664 16.2913C14.7302 16.3228 14.8014 16.347 14.8777 16.3638C14.9566 16.3806 15.0291 16.3974 15.0952 16.4142C15.1613 16.4289 15.216 16.4457 15.2593 16.4646C15.3051 16.4835 15.328 16.5097 15.328 16.5433C15.328 16.5832 15.3051 16.6199 15.2593 16.6535C15.216 16.685 15.1562 16.7008 15.0799 16.7008C15.0036 16.7008 14.9426 16.684 14.8968 16.6504ZM19.208 16.7071C19.2564 16.6525 19.292 16.5979 19.3149 16.5433H18.857C18.8366 16.5643 18.8112 16.5832 18.7807 16.6C18.7527 16.6147 18.7183 16.6273 18.6776 16.6378C18.6395 16.6483 18.5912 16.6535 18.5327 16.6535C18.4182 16.6535 18.3279 16.6294 18.2617 16.5811C18.1956 16.5328 18.1524 16.473 18.132 16.4016H19.353L19.3576 16.3743L19.3606 16.3543L19.3683 16.3102C19.3708 16.2934 19.3721 16.2766 19.3721 16.2598C19.3721 16.1507 19.3492 16.0509 19.3034 15.9606C19.2602 15.8682 19.2004 15.7895 19.1241 15.7244C19.0478 15.6593 18.9587 15.6089 18.857 15.5732C18.7552 15.5375 18.6471 15.5197 18.5327 15.5197C18.4131 15.5197 18.2999 15.5396 18.1931 15.5795C18.0888 15.6173 17.9959 15.6698 17.9145 15.737C17.8357 15.8042 17.7721 15.8829 17.7237 15.9732C17.6779 16.0614 17.6551 16.157 17.6551 16.2598C17.6551 16.3627 17.6779 16.4593 17.7237 16.5496C17.7721 16.6378 17.8357 16.7155 17.9145 16.7827C17.9959 16.8499 18.0888 16.9034 18.1931 16.9433C18.2999 16.9811 18.4131 17 18.5327 17C18.6319 17 18.7234 16.9864 18.8074 16.9591C18.8939 16.9318 18.9702 16.8971 19.0363 16.8551C19.105 16.811 19.1622 16.7617 19.208 16.7071ZM18.2503 15.948C18.3241 15.8934 18.4182 15.8661 18.5327 15.8661C18.6471 15.8661 18.74 15.8934 18.8112 15.948C18.885 16.0026 18.932 16.0698 18.9524 16.1496H18.1129C18.1333 16.0698 18.1791 16.0026 18.2503 15.948ZM20.7067 15.5197C20.727 15.5197 20.7448 15.5207 20.7601 15.5228C20.7754 15.5249 20.7894 15.527 20.8021 15.5291L20.8402 15.5354V15.9134L20.8193 15.9101L20.7983 15.9071C20.7855 15.905 20.769 15.9029 20.7487 15.9008C20.7308 15.8987 20.7105 15.8976 20.6876 15.8976C20.5808 15.8976 20.493 15.927 20.4243 15.9858C20.3582 16.0425 20.3251 16.1181 20.3251 16.2126V16.9843H19.8863V15.5354H20.2106L20.287 15.6929C20.3175 15.6614 20.3544 15.6331 20.3976 15.6079C20.4332 15.5848 20.4765 15.5648 20.5273 15.548C20.5808 15.5291 20.6405 15.5197 20.7067 15.5197ZM22.7988 16.6567C22.8472 16.5895 22.8815 16.5202 22.9019 16.4488H22.4631C22.4427 16.4887 22.4147 16.5234 22.3791 16.5528C22.3486 16.578 22.3092 16.601 22.2608 16.622C22.2125 16.643 22.1527 16.6535 22.0815 16.6535C21.9569 16.6535 21.8526 16.6178 21.7686 16.5465C21.6847 16.4751 21.6427 16.3795 21.6427 16.2598C21.6427 16.1402 21.6847 16.0446 21.7686 15.9732C21.8526 15.9018 21.9569 15.8661 22.0815 15.8661C22.1527 15.8661 22.2125 15.8777 22.2608 15.9008C22.3092 15.9218 22.3486 15.9449 22.3791 15.9701C22.4147 15.9995 22.4427 16.0331 22.4631 16.0709H22.9019C22.8815 15.9995 22.8472 15.9312 22.7988 15.8661C22.7505 15.799 22.6907 15.7402 22.6195 15.6898C22.5483 15.6373 22.4669 15.5963 22.3753 15.5669C22.2837 15.5354 22.1858 15.5197 22.0815 15.5197C21.9619 15.5197 21.8488 15.5396 21.7419 15.5795C21.6376 15.6173 21.5448 15.6698 21.4634 15.737C21.3845 15.8042 21.3209 15.8829 21.2726 15.9732C21.2268 16.0614 21.2039 16.157 21.2039 16.2598C21.2039 16.3627 21.2268 16.4593 21.2726 16.5496C21.3209 16.6378 21.3845 16.7155 21.4634 16.7827C21.5448 16.8499 21.6376 16.9034 21.7419 16.9433C21.8488 16.9811 21.9619 17 22.0815 17C22.1858 17 22.2837 16.9853 22.3753 16.9559C22.4669 16.9244 22.5483 16.8835 22.6195 16.8331C22.6907 16.7806 22.7505 16.7218 22.7988 16.6567ZM24.1229 15.5197C24.2221 15.5197 24.3137 15.5344 24.3976 15.5638C24.4816 15.5911 24.554 15.6299 24.6151 15.6803C24.6761 15.7307 24.7232 15.7906 24.7563 15.8598C24.7919 15.9291 24.8097 16.0047 24.8097 16.0866V16.9843H24.4854L24.4091 16.8425C24.3684 16.8719 24.3238 16.8982 24.2755 16.9213C24.2323 16.9423 24.1801 16.9612 24.1191 16.978C24.058 16.9927 23.9893 17 23.913 17C23.7222 17 23.576 16.9622 23.4742 16.8866C23.3725 16.8089 23.3216 16.7102 23.3216 16.5906C23.3216 16.5192 23.3381 16.4541 23.3712 16.3953C23.4068 16.3344 23.4653 16.2829 23.5467 16.2409C23.6281 16.1968 23.735 16.1633 23.8672 16.1402C24.0021 16.115 24.1699 16.1024 24.3709 16.1024C24.3709 16.0226 24.3442 15.9606 24.2908 15.9165C24.2399 15.8724 24.1712 15.8504 24.0847 15.8504C24.0262 15.8504 23.9792 15.8588 23.9435 15.8756C23.9105 15.8924 23.8838 15.9102 23.8634 15.9291C23.8405 15.9522 23.8253 15.9785 23.8176 16.0079H23.3788C23.389 15.9407 23.4119 15.8777 23.4475 15.8189C23.4857 15.7601 23.5365 15.7087 23.6001 15.6646C23.6637 15.6205 23.7388 15.5858 23.8253 15.5606C23.9143 15.5333 24.0135 15.5197 24.1229 15.5197ZM23.9893 16.7165C24.1038 16.7165 24.1954 16.6892 24.2641 16.6346C24.3353 16.578 24.3709 16.5055 24.3709 16.4173V16.3543C24.2412 16.3543 24.1369 16.3596 24.058 16.3701C23.9792 16.3785 23.9168 16.3921 23.871 16.411C23.8278 16.4278 23.7985 16.4488 23.7833 16.474C23.768 16.4992 23.7604 16.5276 23.7604 16.5591C23.7604 16.5989 23.782 16.6357 23.8253 16.6693C23.8685 16.7008 23.9232 16.7165 23.9893 16.7165ZM26.2734 15.5228C26.2582 15.5207 26.2403 15.5197 26.22 15.5197C26.1539 15.5197 26.0941 15.5291 26.0407 15.548C25.9898 15.5648 25.9465 15.5848 25.9109 15.6079C25.8677 15.6331 25.8308 15.6614 25.8003 15.6929L25.724 15.5354H25.3996V16.9843H25.8384V16.2126C25.8384 16.1181 25.8715 16.0425 25.9376 15.9858C26.0063 15.927 26.0941 15.8976 26.2009 15.8976C26.2238 15.8976 26.2442 15.8987 26.262 15.9008C26.2823 15.9029 26.2989 15.905 26.3116 15.9071C26.3268 15.9092 26.3408 15.9113 26.3535 15.9134V15.5354L26.3154 15.5291C26.3027 15.527 26.2887 15.5249 26.2734 15.5228ZM16.2319 18.4145C16.3611 18.3565 16.4936 18.3275 16.6293 18.3275C16.7488 18.3275 16.8571 18.3458 16.954 18.3824C17.0509 18.4176 17.1374 18.4656 17.2133 18.5267C17.2908 18.5878 17.3546 18.6603 17.4047 18.7443C17.4564 18.8267 17.4952 18.9145 17.521 19.0076H17.9451C17.9015 18.8672 17.8401 18.7359 17.7609 18.6137C17.6818 18.4916 17.5857 18.3847 17.4726 18.2931C17.3595 18.2 17.2327 18.1282 17.0921 18.0779C16.9516 18.026 16.7973 18 16.6293 18C16.4371 18 16.2521 18.0382 16.0744 18.1145C15.8983 18.1908 15.7432 18.2969 15.6091 18.4328C15.475 18.5687 15.3676 18.7282 15.2868 18.9115C15.2061 19.0947 15.1657 19.2908 15.1657 19.5C15.1657 19.7122 15.2061 19.9092 15.2868 20.0908C15.3676 20.2725 15.475 20.4313 15.6091 20.5672C15.7432 20.7031 15.8983 20.8092 16.0744 20.8855C16.2521 20.9618 16.4371 21 16.6293 21C16.8005 21 16.9589 20.9748 17.1042 20.9244C17.2513 20.8725 17.3813 20.8008 17.4944 20.7092C17.6091 20.616 17.706 20.5084 17.7852 20.3863C17.8643 20.2641 17.9257 20.1328 17.9693 19.9924H17.5477C17.5202 20.0855 17.4807 20.174 17.429 20.258C17.3789 20.3405 17.3151 20.4122 17.2375 20.4733C17.16 20.5344 17.0695 20.5832 16.9661 20.6198C16.8643 20.655 16.7521 20.6725 16.6293 20.6725C16.4936 20.6725 16.3611 20.6435 16.2319 20.5855C16.1026 20.5275 15.988 20.4466 15.8878 20.3427C15.7892 20.2374 15.7101 20.113 15.6503 19.9695C15.5922 19.826 15.5631 19.6695 15.5631 19.5C15.5631 19.3305 15.5922 19.174 15.6503 19.0305C15.7101 18.887 15.7892 18.7634 15.8878 18.6595C15.988 18.5542 16.1026 18.4725 16.2319 18.4145ZM9.83167 20.9771H9.43427V18.0229H9.83167V20.9771ZM11.7421 20.6496C11.8843 20.6496 12.0216 20.6206 12.1541 20.5626C12.2866 20.5046 12.4029 20.4244 12.503 20.3221C12.6048 20.2183 12.6856 20.0969 12.7454 19.958C12.8051 19.8176 12.835 19.6649 12.835 19.5C12.835 19.3382 12.8051 19.187 12.7454 19.0466C12.6856 18.9046 12.6048 18.7824 12.503 18.6802C12.4029 18.5763 12.2866 18.4954 12.1541 18.4374C12.0216 18.3794 11.8843 18.3504 11.7421 18.3504H11.272V20.6496H11.7421ZM13.2324 19.5C13.2324 19.7122 13.1928 19.9084 13.1137 20.0886C13.0361 20.2687 12.9295 20.4244 12.7938 20.5557C12.6581 20.687 12.4998 20.7901 12.3189 20.8649C12.1396 20.9397 11.9473 20.9771 11.7421 20.9771H10.8746V18.0229H11.7421C11.9473 18.0229 12.1396 18.0603 12.3189 18.1351C12.4998 18.2099 12.6581 18.313 12.7938 18.4443C12.9295 18.5756 13.0361 18.7321 13.1137 18.9137C13.1928 19.0954 13.2324 19.2908 13.2324 19.5ZM19.7296 18.8427C19.8491 18.8427 19.9606 18.8656 20.064 18.9115C20.169 18.9573 20.2611 19.0198 20.3402 19.0992C20.4194 19.1786 20.4824 19.2748 20.5292 19.3878C20.5761 19.4992 20.5995 19.6229 20.5995 19.7588V20.9771H20.2263V19.7588C20.2263 19.6718 20.211 19.5924 20.1803 19.5206C20.1512 19.4473 20.1116 19.3847 20.0615 19.3328C20.0131 19.2809 19.9557 19.2412 19.8895 19.2137C19.8233 19.1863 19.7538 19.1725 19.6811 19.1725C19.505 19.1725 19.3612 19.226 19.2498 19.3328C19.1399 19.4382 19.085 19.5802 19.085 19.7588V20.9771H18.7118V18.0229H19.085V19.1244C19.1318 19.071 19.1868 19.0244 19.2498 18.9847C19.3063 18.9496 19.3734 18.9176 19.4509 18.8885C19.5301 18.858 19.6229 18.8427 19.7296 18.8427ZM23.1376 20.6359C23.1941 20.5626 23.241 20.4886 23.2781 20.4137H22.8807C22.8613 20.4397 22.8363 20.4679 22.8056 20.4985C22.7765 20.5275 22.7394 20.5542 22.6941 20.5786C22.6489 20.6031 22.5988 20.6252 22.5439 20.645C22.4906 20.6634 22.4292 20.6725 22.3597 20.6725C22.2806 20.6725 22.2022 20.6565 22.1247 20.6244C22.0488 20.5908 21.9817 20.5473 21.9236 20.4939C21.867 20.4405 21.8194 20.3779 21.7806 20.3061C21.7434 20.2344 21.7216 20.1611 21.7152 20.0863H23.3024C23.3056 20.0695 23.3088 20.0519 23.3121 20.0336C23.3153 20.0183 23.3185 20 23.3218 19.9786C23.325 19.9557 23.3266 19.929 23.3266 19.8985C23.3266 19.7397 23.2999 19.5954 23.2466 19.4656C23.1949 19.3359 23.1239 19.2252 23.0334 19.1336C22.9445 19.0405 22.8395 18.9687 22.7184 18.9183C22.5988 18.8679 22.4712 18.8427 22.3355 18.8427C22.1998 18.8427 22.0698 18.8695 21.9454 18.9229C21.821 18.9763 21.7119 19.0511 21.6182 19.1473C21.5261 19.242 21.4526 19.355 21.3977 19.4863C21.3444 19.6176 21.3177 19.7626 21.3177 19.9214C21.3177 20.0817 21.3444 20.2275 21.3977 20.3588C21.4526 20.4901 21.527 20.6038 21.6206 20.7C21.716 20.7947 21.8274 20.8687 21.9551 20.9221C22.0827 20.974 22.2176 21 22.3597 21C22.4777 21 22.5843 20.984 22.6796 20.9519C22.7765 20.9183 22.863 20.8756 22.9389 20.8237C23.0148 20.7702 23.081 20.7076 23.1376 20.6359ZM22.1174 19.2183C22.1869 19.1878 22.2596 19.1725 22.3355 19.1725C22.4841 19.1725 22.6134 19.2275 22.7232 19.3374C22.8347 19.4458 22.9033 19.5939 22.9292 19.7817H21.7152C21.7281 19.6931 21.7531 19.6115 21.7903 19.5366C21.829 19.4618 21.8759 19.3977 21.9308 19.3443C21.9874 19.2908 22.0496 19.2489 22.1174 19.2183ZM24.9632 19.1725C24.8776 19.1725 24.7936 19.1908 24.7112 19.2275C24.6305 19.2626 24.5586 19.313 24.4956 19.3786C24.4326 19.4443 24.3825 19.5229 24.3453 19.6145C24.3098 19.7061 24.292 19.8084 24.292 19.9214C24.292 20.0344 24.3098 20.1374 24.3453 20.2305C24.3825 20.3221 24.4326 20.4008 24.4956 20.4664C24.5586 20.5321 24.6305 20.5832 24.7112 20.6198C24.7936 20.655 24.8776 20.6725 24.9632 20.6725C25.0359 20.6725 25.1046 20.6603 25.1692 20.6359C25.2338 20.6099 25.2912 20.5771 25.3413 20.5374C25.393 20.4962 25.4366 20.4489 25.4721 20.3954C25.5093 20.342 25.5384 20.2855 25.5594 20.226H25.9301C25.9043 20.3328 25.8631 20.4336 25.8065 20.5282C25.75 20.6214 25.6797 20.7031 25.5957 20.7733C25.5117 20.8435 25.4156 20.8992 25.3073 20.9405C25.2007 20.9802 25.086 21 24.9632 21C24.8211 21 24.6862 20.974 24.5586 20.9221C24.4309 20.8687 24.3195 20.7947 24.2242 20.7C24.1305 20.6038 24.0561 20.4901 24.0012 20.3588C23.9479 20.2275 23.9213 20.0817 23.9213 19.9214C23.9213 19.7626 23.9479 19.6176 24.0012 19.4863C24.0561 19.355 24.1305 19.242 24.2242 19.1473C24.3195 19.0511 24.4309 18.9763 24.5586 18.9229C24.6862 18.8695 24.8211 18.8427 24.9632 18.8427C25.086 18.8427 25.2007 18.8634 25.3073 18.9046C25.4156 18.9443 25.5117 19 25.5957 19.0718C25.6797 19.142 25.75 19.2237 25.8065 19.3168C25.8631 19.4099 25.9043 19.5099 25.9301 19.6168H25.5594C25.54 19.5573 25.5117 19.5015 25.4745 19.4496C25.4374 19.3962 25.393 19.3489 25.3413 19.3076C25.2912 19.2664 25.2338 19.2336 25.1692 19.2092C25.1046 19.1847 25.0359 19.1725 24.9632 19.1725ZM26.6726 20.9771H27.0458V19.8756L27.9884 20.9771H28.4343L27.4674 19.8504L28.3107 18.8656H27.889L27.0458 19.8756V18.0229H26.6726V20.9771ZM18.1713 12.6944C17.1461 13.5116 15.8472 14 14.4343 14C11.1206 14 8.43427 11.3137 8.43427 8C8.43427 4.68629 11.1206 2 14.4343 2C15.971 2 17.3727 2.5777 18.4343 3.52778C19.4958 2.5777 20.8975 2 22.4342 2C25.7479 2 28.4342 4.68629 28.4342 8C28.4342 11.3137 25.7479 14 22.4342 14C21.0213 14 19.7224 13.5116 18.6972 12.6944C19.7711 11.6103 20.4343 10.1187 20.4343 8.47221C20.4343 6.69521 19.6618 5.09864 18.4343 4C17.2068 5.09864 16.4343 6.69521 16.4343 8.47221C16.4343 10.1187 17.0975 11.6103 18.1713 12.6944Z" fill="#545472"/>
</svg>
