<svg width="38" height="25" viewBox="0 0 38 25" fill="none" xmlns="http://www.w3.org/2000/svg">
<path d="M36.1885 0H0.956241C0.42748 0 0 0.428138 0 0.956241V23.1162C0 23.6443 0.42748 24.0724 0.956241 24.0724H36.1885C36.7173 24.0724 37.1448 23.6443 37.1448 23.1162V0.956241C37.1448 0.428138 36.7173 0 36.1885 0ZM2.87596 7.2744H6.84035C7.37502 7.29479 7.80579 7.46512 7.95443 8.03663L8.81662 12.1832C7.96955 10.0142 5.92817 8.2096 2.84307 7.46249L2.87596 7.2744ZM7.67295 16.7316L5.38297 8.90804C7.02909 9.96161 8.43123 11.6334 8.92513 12.7968L9.19215 13.7629L11.6965 7.3645H14.4061L10.3792 16.7296L7.67295 16.7316ZM16.3975 16.7382H13.8405L15.4393 7.35464H17.9976L16.3975 16.7382ZM20.8472 16.8789C19.7009 16.8671 18.5967 16.6402 17.9982 16.3778L18.358 14.2778L18.6875 14.4271C19.5273 14.7777 20.0712 14.9197 21.0952 14.9197C21.8298 14.9197 22.617 14.6323 22.6242 14.0036C22.6288 13.5926 22.2948 13.2992 21.2991 12.8389C20.3283 12.3904 19.0433 11.638 19.0591 10.2904C19.0729 8.46674 20.8538 7.19417 23.3812 7.19417C24.3716 7.19417 25.1654 7.39804 25.6718 7.58811L25.3266 9.62226L25.0957 9.51374C24.6248 9.32434 24.0191 9.14151 23.1819 9.15466C22.181 9.15466 21.7167 9.57162 21.7167 9.96161C21.7114 10.4009 22.2586 10.6903 23.153 11.1257C24.6281 11.7952 25.3101 12.6074 25.3009 13.6748C25.2812 15.6215 23.5364 16.8789 20.8472 16.8789ZM31.9288 16.7421C31.9288 16.7421 31.6954 15.6635 31.6178 15.336C31.2455 15.336 28.6359 15.3321 28.3426 15.3321C28.2433 15.5853 27.8053 16.7421 27.8053 16.7421H25.1201L28.9168 8.14317C29.1864 7.53221 29.6435 7.3645 30.2564 7.3645H32.232L34.3017 16.7415L31.9288 16.7421Z" fill="#545472"/>
<path d="M30.6089 10.7044L30.4366 9.89551C30.3064 10.2487 30.0821 10.8162 30.0966 10.7912C30.0966 10.7912 29.2883 12.8741 29.0779 13.414H31.2015C31.0989 12.9438 30.6089 10.7044 30.6089 10.7044Z" fill="#545472"/>
</svg>
