<svg width="37" height="24" viewBox="0 0 37 24" fill="none" xmlns="http://www.w3.org/2000/svg">
<path fill-rule="evenodd" clip-rule="evenodd" d="M0 1C0 0.447716 0.447716 0 1 0H36C36.5523 0 37 0.447716 37 1V23C37 23.5523 36.5523 24 36 24H1C0.447715 24 0 23.5523 0 23V1ZM8.03015 17.0931C8.03015 16.9506 8.06029 16.8142 8.12058 16.684C8.18288 16.5517 8.27131 16.4346 8.38586 16.3328C8.50242 16.231 8.64008 16.1506 8.79885 16.0916C8.95761 16.0305 9.13346 16 9.32639 16C9.51128 16 9.6811 16.0316 9.83585 16.0947C9.99059 16.1557 10.1242 16.2422 10.2368 16.3542C10.3493 16.4641 10.4367 16.5934 10.499 16.742C10.5613 16.8885 10.5925 17.0473 10.5925 17.2183H10.0047C10.0047 17.0148 9.94135 16.8499 9.81474 16.7237C9.69014 16.5954 9.52736 16.5313 9.32639 16.5313C9.21988 16.5313 9.12241 16.5466 9.03398 16.5771C8.94556 16.6076 8.87019 16.6504 8.80789 16.7053C8.74559 16.7603 8.69736 16.8214 8.6632 16.8885C8.63104 16.9537 8.61496 17.0219 8.61496 17.0931C8.61496 17.2316 8.66621 17.3384 8.7687 17.4137C8.87321 17.487 9.00082 17.5511 9.15155 17.6061C9.30428 17.659 9.47008 17.712 9.64894 17.7649C9.82982 17.8178 9.99562 17.8891 10.1463 17.9786C10.2991 18.0682 10.4267 18.1863 10.5292 18.3328C10.6337 18.4774 10.6859 18.6687 10.6859 18.9069C10.6859 19.0494 10.6538 19.1858 10.5895 19.316C10.5252 19.4463 10.4337 19.5634 10.3152 19.6672C10.1986 19.769 10.0569 19.8504 9.89011 19.9114C9.7233 19.9705 9.5354 20 9.32639 20C9.11738 20 8.93149 19.9705 8.7687 19.9114C8.60592 19.8504 8.46625 19.7669 8.34968 19.6611C8.23513 19.5532 8.14771 19.4249 8.08742 19.2763C8.02914 19.1257 8 18.9608 8 18.7817H8.58482C8.58482 19.0036 8.64611 19.1735 8.7687 19.2916C8.8933 19.4097 9.0792 19.4687 9.32639 19.4687C9.58966 19.4687 9.78359 19.4148 9.90819 19.3069C10.0348 19.199 10.0981 19.0656 10.0981 18.9069C10.0981 18.7603 10.0469 18.6453 9.94437 18.5618C9.84188 18.4784 9.71426 18.4092 9.56152 18.3542C9.40879 18.2972 9.24299 18.2422 9.06413 18.1893C8.88527 18.1343 8.71947 18.0641 8.56673 17.9786C8.41399 17.8931 8.28638 17.7822 8.18389 17.6458C8.08139 17.5074 8.03015 17.3232 8.03015 17.0931ZM14.2654 19.4076V19.9695H11.6428V16.0305H14.2051V16.5924H12.2276V17.655H14.0483V18.2198H12.2276V19.4076H14.2654ZM15.7919 18.5863C15.7196 18.4071 15.6834 18.2117 15.6834 18C15.6834 17.7883 15.7196 17.5929 15.7919 17.4137C15.8643 17.2326 15.9587 17.0768 16.0753 16.9466C16.1939 16.8142 16.3285 16.7125 16.4793 16.6412C16.632 16.5679 16.7887 16.5313 16.9495 16.5313C17.0902 16.5313 17.2178 16.5537 17.3324 16.5985C17.4469 16.6412 17.5484 16.7013 17.6368 16.7786C17.7253 16.8539 17.7996 16.9435 17.8599 17.0473C17.9202 17.1491 17.9664 17.258 17.9986 17.374H18.6166C18.5723 17.1868 18.5 17.0097 18.3995 16.8427C18.301 16.6758 18.1805 16.5303 18.0378 16.4061C17.8971 16.2799 17.7333 16.1812 17.5464 16.1099C17.3615 16.0366 17.1625 16 16.9495 16C16.7023 16 16.4662 16.0509 16.2411 16.1527C16.018 16.2545 15.8221 16.3959 15.6533 16.5771C15.4845 16.7583 15.3498 16.971 15.2493 17.2153C15.1488 17.4595 15.0986 17.7211 15.0986 18C15.0986 18.283 15.1488 18.5455 15.2493 18.7878C15.3498 19.03 15.4845 19.2417 15.6533 19.4229C15.8221 19.6041 16.018 19.7455 16.2411 19.8473C16.4662 19.9491 16.7023 20 16.9495 20C17.1726 20 17.3776 19.9644 17.5645 19.8931C17.7514 19.8198 17.9172 19.7211 18.0619 19.5969C18.2086 19.4707 18.3312 19.3242 18.4297 19.1573C18.5281 18.9903 18.6005 18.8132 18.6467 18.626H18.0287C17.9966 18.742 17.9503 18.8509 17.8901 18.9527C17.8318 19.0545 17.7574 19.144 17.667 19.2214C17.5765 19.2987 17.471 19.3598 17.3505 19.4046C17.2319 19.4473 17.0982 19.4687 16.9495 19.4687C16.7887 19.4687 16.632 19.4321 16.4793 19.3588C16.3285 19.2855 16.1939 19.1837 16.0753 19.0534C15.9587 18.9211 15.8643 18.7654 15.7919 18.5863ZM20.9902 19.4687C21.1128 19.4687 21.2263 19.4463 21.3308 19.4015C21.4373 19.3547 21.5298 19.2906 21.6082 19.2092C21.6865 19.1277 21.7468 19.03 21.789 18.916C21.8333 18.802 21.8554 18.6738 21.8554 18.5313V16.0305H22.4432V18.5313C22.4432 18.743 22.407 18.9394 22.3347 19.1206C22.2623 19.2997 22.1608 19.4555 22.0302 19.5878C21.9016 19.7181 21.7488 19.8198 21.572 19.8931C21.3951 19.9644 21.2012 20 20.9902 20C20.7812 20 20.5883 19.9644 20.4114 19.8931C20.2345 19.8198 20.0808 19.7181 19.9502 19.5878C19.8216 19.4555 19.7211 19.2997 19.6487 19.1206C19.5764 18.9394 19.5402 18.743 19.5402 18.5313V16.0305H20.128V18.5313C20.128 18.6738 20.1491 18.802 20.1913 18.916C20.2356 19.03 20.2968 19.1277 20.3752 19.2092C20.4536 19.2906 20.545 19.3547 20.6495 19.4015C20.7541 19.4463 20.8676 19.4687 20.9902 19.4687ZM24.1988 18.4061H24.8771L25.7724 19.9695H26.4206L25.4649 18.345C25.6257 18.2941 25.7694 18.2188 25.896 18.1191C26.0045 18.0356 26.104 17.9226 26.1945 17.7802C26.2849 17.6356 26.3301 17.4483 26.3301 17.2183C26.3301 17.0555 26.299 16.9018 26.2367 16.7573C26.1744 16.6107 26.091 16.4845 25.9865 16.3786C25.882 16.2707 25.7574 16.1863 25.6127 16.1252C25.47 16.0621 25.3182 16.0305 25.1575 16.0305H23.614V19.9695H24.1988V18.4061ZM25.1575 17.8443H24.1988V16.5924H25.1575C25.2358 16.5924 25.3092 16.6097 25.3775 16.6443C25.4479 16.6768 25.5092 16.7216 25.5614 16.7786C25.6157 16.8336 25.6589 16.8987 25.691 16.974C25.7252 17.0494 25.7423 17.1308 25.7423 17.2183C25.7423 17.3059 25.7252 17.3873 25.691 17.4626C25.6589 17.5379 25.6157 17.6041 25.5614 17.6611C25.5092 17.716 25.4479 17.7608 25.3775 17.7954C25.3092 17.828 25.2358 17.8443 25.1575 17.8443ZM30 19.4076V19.9695H27.3774V16.0305H29.9397V16.5924H27.9622V17.655H29.783V18.2198H27.9622V19.4076H30ZM14.0892 12.8853L15.4105 5.13111H17.5249L16.2025 12.8853H14.0892ZM12.3172 5.13973L10.2474 10.4279L10.0267 9.62942C9.61849 8.66734 8.45965 7.28565 7.09915 6.41489L8.99178 12.8815L11.2279 12.8777L14.5561 5.1381L12.3172 5.13973ZM8.30367 5.06483C8.74558 5.08168 9.1016 5.22246 9.22444 5.69481L9.93703 9.12024C9.23694 7.32816 7.54978 5.83776 5 5.2192L5.02718 5.06483H8.30367ZM21.8081 6.61755C22.4995 6.60668 23.0006 6.75778 23.3898 6.91432L23.5806 7.00401L23.8665 5.32336C23.448 5.16628 22.7919 4.99778 21.9733 4.99778C19.885 4.99778 18.4131 6.04954 18.4017 7.55679C18.3881 8.67052 19.4502 9.29234 20.2525 9.66358C21.0759 10.0441 21.3521 10.2859 21.3483 10.6257C21.3417 11.1447 20.6917 11.3828 20.0845 11.3828C19.2382 11.3828 18.7887 11.266 18.0946 10.9768L17.8223 10.8529L17.525 12.5884C18.0196 12.8053 18.9322 12.9917 19.8796 13.0015C22.1011 13.0015 23.5447 11.9622 23.56 10.3517C23.5692 9.47062 23.0055 8.79825 21.7842 8.24656C21.045 7.88673 20.5927 7.64757 20.5971 7.28448C20.5971 6.96215 20.9808 6.61755 21.8081 6.61755ZM27.6572 5.13976H29.29L31 12.8896H29.0394C29.0394 12.8896 28.8448 11.9988 28.7818 11.7281C28.6192 11.7281 27.9388 11.7272 27.2981 11.7263C26.7282 11.7255 26.1898 11.7248 26.0755 11.7248C25.9934 11.9341 25.6314 12.8896 25.6314 12.8896H23.4121L26.55 5.78332C26.7728 5.27782 27.15 5.13976 27.6572 5.13976ZM27.5256 7.97055C27.5256 7.97055 26.8576 9.6925 26.6837 10.1377H28.4393L27.9496 7.8988L27.8072 7.23024C27.7538 7.37301 27.6825 7.5583 27.625 7.70788C27.5649 7.86411 27.5198 7.98138 27.5256 7.97055Z" fill="#545472"/>
</svg>
