<svg width="38" height="24" viewBox="0 0 38 24" fill="none" xmlns="http://www.w3.org/2000/svg">
<path fill-rule="evenodd" clip-rule="evenodd" d="M1.43427 0C0.88198 0 0.434265 0.447716 0.434265 1V23C0.434265 23.5523 0.88198 24 1.43426 24H36.4343C36.9865 24 37.4343 23.5523 37.4343 23V1C37.4343 0.447715 36.9865 0 36.4343 0H1.43427ZM19.7991 3.00049L17.8016 4.99084V4.24291H14.9611V7.0478L14.4427 6.53125L12.4343 8.53248L14.5386 10.6293H13.7054V13.4594H16.5433L16.0023 13.9985L18.0107 15.9998L20.0667 13.9512V14.7813H22.9072V11.847L23.4257 12.3637L25.4342 10.3624L23.423 8.3585H24.2334V5.52833H21.2791L21.8076 5.00172L19.7991 3.00049ZM20.521 9.46935L21.7441 10.6881H20.0667V12.2598L18.907 11.1042L17.8133 12.194V10.6293H16.1394L17.3475 9.42555L16.2541 8.33607H17.8016V6.79874L18.9028 7.89602L20.1255 6.67777V8.3585H21.6358L20.521 9.46935ZM10.7317 18.0867C10.8886 18.0867 11.0312 18.1119 11.1593 18.1623C11.2907 18.2127 11.4028 18.2804 11.4957 18.3654C11.5886 18.4504 11.6607 18.5512 11.7119 18.6678C11.7632 18.7812 11.7888 18.9024 11.7888 19.0315C11.7888 19.1607 11.7632 19.2835 11.7119 19.4001C11.6607 19.5134 11.5886 19.6127 11.4957 19.6977C11.4028 19.7827 11.2907 19.8504 11.1593 19.9008C11.0312 19.9512 10.8886 19.9764 10.7317 19.9764H9.43427V17.0001H11.5486V17.6615H10.131V18.0867H10.7317ZM10.7077 19.3859C10.8166 19.3859 10.9079 19.3512 10.9816 19.2819C11.0552 19.2095 11.0921 19.126 11.0921 19.0315C11.0921 18.9371 11.0552 18.8552 10.9816 18.7859C10.9079 18.7134 10.8166 18.6772 10.7077 18.6772H10.131V19.3859H10.7077ZM12.2217 17.0001H14.384V17.6615H12.9184V18.1339H14.2639V18.7953H12.9184V19.315H14.4321V19.9764H12.2217V17.0001ZM17.4333 19.9764V17.0001H15.295L15.1268 18.9371C15.114 19.0788 15.0691 19.189 14.9922 19.2678C14.9185 19.3465 14.8272 19.3859 14.7183 19.3859H14.6222V19.9764C14.6479 19.9827 14.6767 19.9875 14.7087 19.9906C14.7343 19.9938 14.7648 19.9953 14.8 19.9953C14.8353 19.9985 14.8721 20.0001 14.9105 20.0001C15.1636 20.0001 15.3686 19.9213 15.5256 19.7638C15.6826 19.6032 15.7739 19.3749 15.7995 19.0788L15.9196 17.6615H16.7365V19.9764H17.4333ZM18.7044 19.9764H18.0077V17.0001H18.7044V18.2756L19.6174 17.0001H20.4103L19.3435 18.4646L20.4351 19.9137L21.4935 17.0001H22.2143L23.2955 19.9764H22.5747L22.3825 19.4095H21.3253L21.1331 19.9764H20.4824H20.4123H19.6895L18.7044 18.6536V19.9764ZM21.8539 17.8268L22.1903 18.819H21.5175L21.8539 17.8268ZM24.7363 17.0001C24.8933 17.0001 25.0374 17.0268 25.1688 17.0804C25.3001 17.1308 25.4138 17.2032 25.5099 17.2977C25.6061 17.389 25.6813 17.4961 25.7358 17.6189C25.7902 17.7418 25.8175 17.8741 25.8175 18.0158C25.8175 18.1575 25.7902 18.2898 25.7358 18.4127C25.6813 18.5355 25.6061 18.6441 25.5099 18.7386C25.4138 18.83 25.3001 18.9024 25.1688 18.956C25.0374 19.0064 24.8933 19.0315 24.7363 19.0315H24.2558V19.9764H23.559V17.0001H24.7363ZM24.7363 18.3701C24.8452 18.3701 24.9365 18.3355 25.0102 18.2662C25.0839 18.1938 25.1207 18.1103 25.1207 18.0158C25.1207 17.9213 25.0839 17.8394 25.0102 17.7701C24.9365 17.6977 24.8452 17.6615 24.7363 17.6615H24.2558V18.3701H24.7363ZM26.8726 19.9764H27.5693V17.6615H28.4343V17.0001H26.0076V17.6615H26.8726V19.9764Z" fill="#545472"/>
</svg>
