<svg width="26" height="39" viewBox="0 0 26 39" fill="none" xmlns="http://www.w3.org/2000/svg">
<mask id="path-1-inside-1_2_385" fill="white">
<path d="M0 2C0 0.89543 0.895431 0 2 0H24C25.1046 0 26 0.895431 26 2V21.2146C26 22.3192 25.1046 23.2146 24 23.2146H18.469C17.2567 23.2146 16.1489 23.944 15.8663 25.1229C15.4847 26.7146 15.2621 28.9021 16.4667 30.0546C18.5 32 18.4712 35.0351 16.4667 36.8946C14.5229 38.6978 11.4771 38.6978 9.53333 36.8946C7.52878 35.0351 7.5 32 9.53333 30.0546C10.7379 28.9021 10.5153 26.7146 10.1337 25.1229C9.85106 23.944 8.74329 23.2146 7.53103 23.2146H2C0.895432 23.2146 0 22.3192 0 21.2146V2Z"/>
</mask>
<path d="M9.53333 36.8946L10.8935 35.4284L9.53333 36.8946ZM16.4667 36.8946L15.1065 35.4284L16.4667 36.8946ZM2 2H24V-2H2V2ZM24 2V21.2146H28V2H24ZM2 21.2146V2H-2V21.2146H2ZM7.53103 21.2146H2V25.2146H7.53103V21.2146ZM24 21.2146H18.469V25.2146H24V21.2146ZM15.1065 35.4284C13.9298 36.5199 12.0702 36.5199 10.8935 35.4284L8.17315 38.3609C10.8841 40.8757 15.1159 40.8757 17.8268 38.3609L15.1065 35.4284ZM10.8935 35.4284C9.74673 34.3645 9.70109 32.662 10.916 31.4997L8.15072 28.6095C5.29891 31.338 5.31083 35.7056 8.17315 38.3609L10.8935 35.4284ZM10.916 31.4997C12.0374 30.4268 12.365 29.0006 12.4255 27.8594C12.4871 26.6988 12.2913 25.5438 12.0786 24.6566L8.18878 25.5891C8.35768 26.2937 8.46398 27.0283 8.43113 27.6475C8.39724 28.2861 8.23388 28.5299 8.15072 28.6095L10.916 31.4997ZM13.9214 24.6566C13.7087 25.5438 13.5129 26.6988 13.5745 27.8594C13.635 29.0006 13.9626 30.4268 15.0841 31.4997L17.8493 28.6095C17.7661 28.5299 17.6028 28.2861 17.5689 27.6475C17.536 27.0283 17.6423 26.2937 17.8112 25.5891L13.9214 24.6566ZM15.0841 31.4997C16.2989 32.662 16.2533 34.3645 15.1065 35.4284L17.8268 38.3609C20.6892 35.7056 20.7011 31.338 17.8493 28.6095L15.0841 31.4997ZM18.469 21.2146C16.506 21.2146 14.4578 22.4192 13.9214 24.6566L17.8112 25.5891C17.8315 25.5046 17.8781 25.4277 17.9778 25.3567C18.0871 25.2791 18.258 25.2146 18.469 25.2146V21.2146ZM7.53103 25.2146C7.74198 25.2146 7.91289 25.2791 8.02216 25.3567C8.12191 25.4277 8.16851 25.5046 8.18878 25.5891L12.0786 24.6566C11.5422 22.4192 9.49404 21.2146 7.53103 21.2146V25.2146ZM-2 21.2146C-2 23.4237 -0.209136 25.2146 2 25.2146V21.2146H2H-2ZM24 21.2146V25.2146C26.2091 25.2146 28 23.4237 28 21.2146H24ZM24 2V2H28C28 -0.209138 26.2091 -2 24 -2V2ZM2 -2C-0.209138 -2 -2 -0.20914 -2 2H2V2V-2Z" fill="white" mask="url(#path-1-inside-1_2_385)"/>
<line y1="17.24" x2="26" y2="17.24" stroke="white" stroke-width="2"/>
<line y1="12.0945" x2="26" y2="12.0945" stroke="white" stroke-width="2"/>
</svg>
