<svg width="31" height="34" viewBox="0 0 31 34" fill="none" xmlns="http://www.w3.org/2000/svg">
<path d="M12.9667 6.1139H15.9149V10.0448H18.2176C21.9328 10.0448 25.6253 8.60328 28.4025 5.82602L29.0974 5.13117L28.4026 4.43631C25.7756 1.80922 22.1452 0.217529 18.2176 0.217529H15.9149V4.14844H12.9667V2.18299H1.17401V8.07935H12.9667V6.1139ZM17.8804 2.18299C18.0796 2.21679 22.3553 1.81171 26.2596 5.13117C24.0152 7.03936 21.1964 8.07935 18.2177 8.07935H17.8804V2.18299ZM7.07038 6.1139H3.13947V4.14844H7.07038V6.1139ZM11.0013 6.1139H9.03583V4.14844H11.0013V6.1139Z" fill="white"/>
<rect x="14" y="16" width="10" height="6" stroke="white" stroke-width="2"/>
<rect x="1" y="28" width="12" height="5" stroke="white" stroke-width="2"/>
<rect x="13" y="28" width="11" height="5" stroke="white" stroke-width="2"/>
<rect x="9" y="23" width="11" height="5" stroke="white" stroke-width="2"/>
<rect x="20" y="23" width="10" height="5" stroke="white" stroke-width="2"/>
</svg>
