<svg width="36" height="26" viewBox="0 0 36 26" fill="none" xmlns="http://www.w3.org/2000/svg">
<path d="M34.0095 9.97523C32.7632 9.20039 31.2368 9.13146 29.9267 9.79074L29.2219 10.1454V3.3355C29.2219 2.74925 28.7486 2.27398 28.1661 2.27398C25.5298 2.27398 23.3169 4.12675 22.7412 6.60604L17.0513 0.879352C16.6397 0.465005 15.9717 0.464439 15.5592 0.879918C15.3911 1.0492 15.2344 1.22689 15.0896 1.41216C14.8549 1.0257 14.5739 0.663863 14.2495 0.334014C13.8455 -0.0983077 13.1597 -0.116141 12.7356 0.310802L5.76309 7.32837C3.75398 9.35042 2.54756 11.9652 2.30491 14.7809H1.05469C0.472219 14.7809 0 15.2562 0 15.8425V24.9385C0 25.5247 0.472219 26 1.05469 26H12.3516C12.5153 26 12.6768 25.9616 12.8232 25.888L35.417 14.5179C35.7743 14.3381 36 13.9705 36 13.5684C36 12.0947 35.2561 10.7515 34.0095 9.97523ZM14.2269 8.63361C14.3952 8.46426 14.5519 8.28649 14.6967 8.10115C14.9368 8.4966 15.2253 8.86594 15.5591 9.20195L18.075 11.7342V15.1238L13.9906 16.7682L11.7636 12.2859C11.5314 11.8185 11.622 11.256 11.9891 10.8865C12.6134 10.2582 13.4206 9.44574 14.2269 8.63361ZM22.5937 18.5975L12.1025 23.877H2.10938V16.904H3.31404C3.89651 16.904 4.36873 16.4288 4.36873 15.8425V15.842C4.36873 13.193 5.3936 10.7027 7.25456 8.82964L13.3751 2.66957C13.6725 3.21604 13.8305 3.83207 13.8305 4.47253C13.8305 5.47729 13.4416 6.42183 12.7352 7.13262C11.9287 7.94497 11.1216 8.75724 10.4976 9.38538C9.48741 10.402 9.23801 11.9493 9.87694 13.2355L12.538 18.5914C12.7834 19.0851 13.3637 19.3072 13.873 19.1022L19.5214 16.8282C19.9219 16.667 20.1844 16.2767 20.1844 15.8426V11.2946C20.1844 11.013 20.0732 10.7431 19.8754 10.5439L17.0506 7.70082C16.3447 6.99031 15.9559 6.0457 15.9559 5.041C15.9559 4.40048 16.1139 3.78445 16.4114 3.23791L22.5938 9.46025V18.5975H22.5937ZM27.1125 11.8948C27.1125 13.9963 26.2202 15.9344 24.7031 17.273V7.88234C24.7031 6.33033 25.7164 5.01199 27.1125 4.56205V11.8948ZM28.4295 15.6607C28.8655 14.6717 29.1267 13.6128 29.2003 12.5299L30.8699 11.6897C31.5217 11.3617 32.281 11.396 32.9003 11.7811C33.342 12.0562 33.657 12.4744 33.8015 12.9573L28.4295 15.6607Z" fill="white"/>
</svg>
