<svg width="41" height="40" viewBox="0 0 41 40" fill="none" xmlns="http://www.w3.org/2000/svg">
<path d="M3.00291 31.2156C2.61239 30.8251 2.61239 30.1919 3.00291 29.8014L25.0537 7.75056C25.2021 7.60219 25.3934 7.50425 25.6005 7.47061L25.4407 6.48749L25.6005 7.4706L33.5562 6.17801C34.23 6.06852 34.8131 6.65155 34.7036 7.32543L35.6544 7.47991L34.7036 7.32544L33.411 15.2811C33.3773 15.4882 33.2794 15.6795 33.131 15.8279L11.0802 37.8787C10.6897 38.2692 10.0565 38.2692 9.66601 37.8787L3.00291 31.2156Z" stroke="white" stroke-width="2"/>
<line x1="8.70711" y1="25.2928" x2="16.8427" y2="33.4284" stroke="white" stroke-width="2"/>
<path d="M23.2545 9.49163L24.6105 12.2035L27.6613 13.2204L28.3393 15.9323L31.3901 17.6272" stroke="white" stroke-width="2"/>
<path d="M11.8701 21.9689L3.83601 13.8647C3.06076 13.0826 3.0635 11.821 3.84215 11.0424L9.08642 5.79811C9.88905 4.99548 11.198 5.02095 11.9688 5.8542L19.665 14.174M19.9163 29.9739L26.5484 36.572C27.33 37.3496 28.5935 37.348 29.3731 36.5684L34.6382 31.3034C35.4319 30.5096 35.4171 29.2181 34.6053 28.4428L27.8751 22.0151" stroke="white" stroke-width="2"/>
<line x1="8.25967" y1="12.293" x2="5.10869" y2="15.444" stroke="white" stroke-width="2"/>
<line x1="28.4259" y1="32.4592" x2="25.2749" y2="35.6102" stroke="white" stroke-width="2"/>
<line x1="10.1503" y1="16.7045" x2="8.25966" y2="18.5951" stroke="white" stroke-width="2"/>
<line x1="24.0146" y1="30.5686" x2="22.1241" y2="32.4592" stroke="white" stroke-width="2"/>
</svg>
